<?xml version="1.0" standalone="no"?>
  <!DOCTYPE svg PUBLIC "-//W3C//DTD SVG 1.1//EN" "http://www.w3.org/Graphics/SVG/1.1/DTD/svg11.dtd" >
  <svg>
  <metadata>
  Created by font-carrier
  </metadata>
  <defs>
  <font id="Heebo-Black" horiz-adv-x="2030" vert-adv-y="2030" >
    <font-face
      
      font-family="Heebo-Black"
      
      font-weight="400"
      
      font-stretch="normal"
      
      units-per-em="2048"
      
      ascent="2146"
      
      descent="-862"
      
    />
      <missing-glyph />

      

      
      <glyph glyph-name="uni21" unicode="&#x21;" d="M446 473L155 473L108 1456L493 1456L446 473M99 167Q99 247 154 300Q209 353 297 353Q386 353 440.50 300Q495 247 495 167Q495 88 440.50 34Q386-20 297-20Q209-20 154 34Q99 88 99 167Z"  horiz-adv-x="579" vert-adv-y="2048"  />

      
      <glyph glyph-name="uni22" unicode="&#x22;" d="M259 1398L213 947L15 947L15 1383L15 1537L259 1537L259 1398M622 1398L576 947L380 947L379 1392L379 1537L622 1537L622 1398Z"  horiz-adv-x="659" vert-adv-y="2048"  />

      
      <glyph glyph-name="uni23" unicode="&#x23;" d="M417 1456L626 1456L390 0L179 0L417 1456M771 1456L982 1456L745 0L534 0L771 1456M102 842L102 1040L1143 1040L1143 842L102 842M27 410L27 609L1067 609L1067 410L27 410Z"  horiz-adv-x="1194" vert-adv-y="2048"  />

      
      <glyph glyph-name="uni24" unicode="&#x24;" d="M722 1392L555 1392L555 1685L722 1685L722 1392M700-220L533-220L533 53L700 53L700-220M745 390Q745 442 729.50 474.50Q714 507 680 531Q646 555 589 579Q456 636 353 694Q250 752 192 838Q134 924 134 1064Q134 1189 196.50 1282Q259 1375 369 1426Q479 1477 623 1477Q768 1477 878.50 1420Q989 1363 1051.50 1257Q1114 1151 1114 1003L754 1003Q754 1112 713.50 1153Q673 1194 616 1194Q573 1194 546 1175.50Q519 1157 506.50 1126.50Q494 1096 494 1060Q494 1021 508.50 991.50Q523 962 557.50 936.50Q592 911 652 883Q782 825 884.50 764.50Q987 704 1046.50 617Q1106 530 1106 392Q1106 261 1044 168.50Q982 76 872 27.50Q762-21 617-21Q520-21 425 4.50Q330 30 252 87.50Q174 145 127 241Q80 337 80 477L440 477Q440 416 454.50 374.50Q469 333 493.50 308.50Q518 284 550 273Q582 262 617 262Q663 262 691 279.50Q719 297 732 326.50Q745 356 745 390Z"  horiz-adv-x="1192" vert-adv-y="2048"  />

      
      <glyph glyph-name="uni25" unicode="&#x25;" d="M89 1176Q89 1259 125.50 1327Q162 1395 234.50 1436Q307 1477 416 1477Q528 1477 601 1436Q674 1395 709.50 1327Q745 1259 745 1176L745 1099Q745 1018 709.50 950Q674 882 601.50 841Q529 800 418 800Q308 800 235 841Q162 882 125.50 950Q89 1018 89 1099L89 1176M318 1099Q318 1073 329 1050.50Q340 1028 362.50 1014Q385 1000 418 1000Q452 1000 473 1014Q494 1028 504.50 1050.50Q515 1073 515 1099L515 1176Q515 1203 504.50 1226Q494 1249 472 1263Q450 1277 416 1277Q384 1277 362 1263Q340 1249 329 1226Q318 1203 318 1176L318 1099M775 357Q775 439 812 507Q849 575 922 616Q995 657 1104 657Q1216 657 1289 616Q1362 575 1397.50 507Q1433 439 1433 357L1433 280Q1433 198 1397.50 130Q1362 62 1289.50 21Q1217-20 1106-20Q996-20 922.50 21Q849 62 812 130Q775 198 775 280L775 357M1005 280Q1005 253 1019 230.50Q1033 208 1056 194Q1079 180 1106 180Q1150 180 1170.50 194Q1191 208 1197 230.50Q1203 253 1203 280L1203 357Q1203 396 1178.50 426.50Q1154 457 1104 457Q1054 457 1029.50 426.50Q1005 396 1005 357L1005 280M485 107L319 191L1030 1329L1196 1245L485 107Z"  horiz-adv-x="1520" vert-adv-y="2048"  />

      
      <glyph glyph-name="uni26" unicode="&#x26;" d="M616 957Q678 996 689.50 1028.50Q701 1061 701 1085Q701 1121 674.50 1154Q648 1187 599 1187Q544 1187 517 1155Q490 1123 490 1076Q490 1009 545 940Q600 871 676 779L1358 0L957 0L405 621Q302 753 241 857.50Q180 962 180 1073Q180 1190 232 1281Q284 1372 378.50 1424.50Q473 1477 600 1477Q718 1477 805.50 1427Q893 1377 941 1295Q989 1213 989 1115Q989 1049 964.50 989.50Q940 930 896.50 880Q853 830 796 790L455 552Q441 535 431.50 516Q422 497 417.50 474.50Q413 452 413 422Q413 375 433.50 340.50Q454 306 486.50 287.50Q519 269 555 269Q634 269 707.50 303.50Q781 338 840 401.50Q899 465 933.50 551.50Q968 638 968 743L1269 743Q1269 559 1213.50 402Q1158 245 1017 140Q1012 139 997 130.50Q982 122 977 120Q870 47 768.50 13Q667-21 530-21Q382-21 274.50 32Q167 85 109 178.50Q51 272 51 393Q51 477 83 539Q115 601 171.50 653.50Q228 706 302 758L616 957Z"  horiz-adv-x="1392" vert-adv-y="2048"  />

      
      <glyph glyph-name="uni27" unicode="&#x27;" d="M290 1366L255 935L36 935L35 1353L35 1536L290 1536L290 1366Z"  horiz-adv-x="314" vert-adv-y="2048"  />

      
      <glyph glyph-name="uni28" unicode="&#x28;" d="M119 592Q119 800 162 969.50Q205 1139 278 1267Q351 1395 441 1479Q531 1563 624 1599L691 1418Q636 1378 585 1311Q534 1244 493 1145Q452 1046 428 909.50Q404 773 404 594L404 559Q404 380 428 244Q452 108 493 9Q534-90 585-156.50Q636-223 691-263L624-446Q531-410 441-325.50Q351-241 278-113Q205 15 162 184.50Q119 354 119 561L119 592Z"  horiz-adv-x="732" vert-adv-y="2048"  />

      
      <glyph glyph-name="uni29" unicode="&#x29;" d="M639 561Q639 366 593.50 198.50Q548 31 472-101Q396-233 301.50-321.50Q207-410 109-446L41-263Q95-223 146-156.50Q197-90 238.50 9Q280 108 304 244Q328 380 328 559L328 594Q328 773 304 909Q280 1045 239 1144Q198 1243 147 1310Q96 1377 41 1417L109 1599Q207 1563 301.50 1474.50Q396 1386 472 1254.50Q548 1123 593.50 955Q639 787 639 592L639 561Z"  horiz-adv-x="729" vert-adv-y="2048"  />

      
      <glyph glyph-name="uni2a" unicode="&#x2a;" d="M350 948L27 1036L95 1239L411 1105L384 1456L610 1456L583 1098L890 1227L958 1022L630 935L847 674L665 547L485 840L305 558L122 680L350 948Z"  horiz-adv-x="961" vert-adv-y="2048"  />

      
      <glyph glyph-name="uni2b" unicode="&#x2b;" d="M1041 519L43 519L43 841L1041 841L1041 519M711 146L376 146L376 1206L711 1206L711 146Z"  horiz-adv-x="1089" vert-adv-y="2048"  />

      
      <glyph glyph-name="uni2c" unicode="&#x2c;" d="M435 36Q435-92 372.50-215.50Q310-339 221-417L40-333Q60-287 85.50-239.50Q111-192 129.50-131.50Q148-71 148 13L148 265L436 265L435 36Z"  horiz-adv-x="567" vert-adv-y="2048"  />

      
      <glyph glyph-name="uni2d" unicode="&#x2d;" d="M773 481L160 481L160 772L773 772L773 481Z"  horiz-adv-x="950" vert-adv-y="2048"  />

      
      <glyph glyph-name="uni2e" unicode="&#x2e;" d="M114 175Q114 254 169 307Q224 360 311 360Q399 360 453.50 307Q508 254 508 175Q508 96 453.50 42.50Q399-11 311-11Q224-11 169 42.50Q114 96 114 175Z"  horiz-adv-x="634" vert-adv-y="2048"  />

      
      <glyph glyph-name="uni2f" unicode="&#x2f;" d="M219-125L-35-125L453 1456L707 1456L219-125Z"  horiz-adv-x="713" vert-adv-y="2048"  />

      
      <glyph glyph-name="uni30" unicode="&#x30;" d="M1110 591Q1110 384 1044.50 248.50Q979 113 863.50 46.50Q748-20 598-20Q447-20 330.50 46.50Q214 113 148.50 248.50Q83 384 83 591L83 864Q83 1071 148 1206.50Q213 1342 329 1409Q445 1476 596 1476Q746 1476 862 1409Q978 1342 1044 1206.50Q1110 1071 1110 864L1110 591M749 911Q749 1016 730 1075.50Q711 1135 677 1160Q643 1185 596 1185Q549 1185 514.50 1160Q480 1135 461.50 1075.50Q443 1016 443 911L443 545Q443 438 462 378Q481 318 515.50 294Q550 270 598 270Q644 270 678 294Q712 318 730.50 378Q749 438 749 545L749 911Z"  horiz-adv-x="1192" vert-adv-y="2048"  />

      
      <glyph glyph-name="uni31" unicode="&#x31;" d="M851 0L490 0L490 1031L165 944L165 1227L818 1455L851 1455L851 0Z"  horiz-adv-x="1192" vert-adv-y="2048"  />

      
      <glyph glyph-name="uni32" unicode="&#x32;" d="M1112 0L85 0L85 244L552 727Q611 792 647.50 844.50Q684 897 700.50 939.50Q717 982 717 1015Q717 1103 680 1145Q643 1187 573 1187Q525 1187 490 1159Q455 1131 435.50 1084Q416 1037 416 978L55 978Q55 1115 121.50 1228.50Q188 1342 306.50 1409.50Q425 1477 582 1477Q828 1477 953.50 1364.50Q1079 1252 1079 1048Q1079 943 1037 851.50Q995 760 916 665.50Q837 571 725 457L558 290L1112 290L1112 0Z"  horiz-adv-x="1192" vert-adv-y="2048"  />

      
      <glyph glyph-name="uni33" unicode="&#x33;" d="M564 883Q621 883 658 902.50Q695 922 713 959.50Q731 997 731 1050Q731 1084 714.50 1115.50Q698 1147 663 1167Q628 1187 574 1187Q539 1187 504.50 1174.50Q470 1162 447.50 1138.50Q425 1115 425 1082L65 1082Q65 1208 134.50 1296Q204 1384 317.50 1430.50Q431 1477 562 1477Q719 1477 838.50 1429.50Q958 1382 1025 1289Q1092 1196 1092 1059Q1092 981 1056.50 914.50Q1021 848 957.50 798.50Q894 749 809 721.50Q724 694 625 694L396 694L396 883L564 883M396 789L625 789Q733 789 822.50 765.50Q912 742 977.50 695Q1043 648 1078.50 577Q1114 506 1114 411Q1114 274 1041 177.50Q968 81 843 30.50Q718-20 561-20Q470-20 378 4.50Q286 29 210.50 80Q135 131 89 212.50Q43 294 43 408L405 408Q405 371 428.50 339.50Q452 308 490 289Q528 270 573 270Q659 270 706.50 316Q754 362 754 420Q754 488 731.50 528.50Q709 569 666.50 586.50Q624 604 564 604L396 604L396 789Z"  horiz-adv-x="1192" vert-adv-y="2048"  />

      
      <glyph glyph-name="uni34" unicode="&#x34;" d="M1130 299L79 299L57 532L633 1456L917 1456L614 937L398 589L1130 589L1130 299M991 0L631 0L631 1456L991 1456L991 0Z"  horiz-adv-x="1192" vert-adv-y="2048"  />

      
      <glyph glyph-name="uni35" unicode="&#x35;" d="M99 706L189 1456L1053 1456L1053 1166L483 1166L452 913Q475 925 530.50 943.50Q586 962 653 962Q799 962 899.50 905Q1000 848 1052.50 738Q1105 628 1105 470Q1105 348 1049.50 235.50Q994 123 880.50 51.50Q767-20 592-20Q493-20 399.50 11Q306 42 231.50 100Q157 158 114 239.50Q71 321 73 421L435 421Q438 354 480 312Q522 270 589 270Q652 270 685.50 303Q719 336 731.50 388.50Q744 441 744 499Q744 565 724.50 611.50Q705 658 662.50 682.50Q620 707 550 707Q480 707 441 682Q402 657 386 636L99 706Z"  horiz-adv-x="1192" vert-adv-y="2048"  />

      
      <glyph glyph-name="uni36" unicode="&#x36;" d="M909 1480L909 1185L890 1185Q796 1185 714 1162Q632 1139 570.50 1090.50Q509 1042 474.50 965Q440 888 440 780L440 515Q440 430 459 376Q478 322 516 296Q554 270 612 270Q660 270 697.50 298Q735 326 756.50 375Q778 424 778 485Q778 556 754.50 603.50Q731 651 691 675.50Q651 700 600 700Q539 700 498.50 674Q458 648 438.50 609.50Q419 571 419 533L335 633Q333 683 357 744Q381 805 430.50 860.50Q480 916 554 952Q628 988 727 988Q860 988 951.50 922Q1043 856 1091 742Q1139 628 1139 483Q1139 340 1072.50 226Q1006 112 889.50 46Q773-20 622-20Q506-20 407 18.50Q308 57 234.50 132Q161 207 120 318.50Q79 430 79 575L79 701Q79 891 141.50 1036.50Q204 1182 312.50 1280.50Q421 1379 559.50 1429.50Q698 1480 851 1480L909 1480Z"  horiz-adv-x="1192" vert-adv-y="2048"  />

      
      <glyph glyph-name="uni37" unicode="&#x37;" d="M1109 1255L574 0L193 0L730 1166L50 1166L50 1456L1109 1456L1109 1255Z"  horiz-adv-x="1192" vert-adv-y="2048"  />

      
      <glyph glyph-name="uni38" unicode="&#x38;" d="M1107 404Q1107 263 1041 169Q975 75 860.50 27.50Q746-20 598-20Q451-20 334.50 27.50Q218 75 150.50 169Q83 263 83 404Q83 533 151 625Q219 717 335 765.50Q451 814 596 814Q743 814 858.50 765.50Q974 717 1040.50 625Q1107 533 1107 404M746 436Q746 490 727.50 526Q709 562 675.50 580.50Q642 599 596 599Q551 599 517 580.50Q483 562 464 526Q445 490 445 436Q445 385 464 348Q483 311 517.50 290.50Q552 270 598 270Q643 270 676.50 290.50Q710 311 728 348Q746 385 746 436M1078 1064Q1078 949 1017 863Q956 777 848 729.50Q740 682 598 682Q457 682 347.50 729.50Q238 777 175.50 863Q113 949 113 1064Q113 1199 175 1291Q237 1383 346 1430Q455 1477 595 1477Q738 1477 846.50 1430Q955 1383 1016.50 1291Q1078 1199 1078 1064M718 1042Q718 1088 704.50 1120Q691 1152 664 1169.50Q637 1187 595 1187Q555 1187 528 1169.50Q501 1152 488 1120Q475 1088 475 1042Q475 997 488 962.50Q501 928 528.50 908.50Q556 889 598 889Q640 889 666.50 908.50Q693 928 705.50 962.50Q718 997 718 1042Z"  horiz-adv-x="1192" vert-adv-y="2048"  />

      
      <glyph glyph-name="uni39" unicode="&#x39;" d="M322 279Q417 279 494.50 295.50Q572 312 628 351Q684 390 714 458.50Q744 527 744 630L744 951Q744 1033 725 1085Q706 1137 671.50 1162Q637 1187 589 1187Q541 1187 507.50 1151Q474 1115 456.50 1061Q439 1007 439 953Q439 888 457.50 837.50Q476 787 513.50 759Q551 731 607 731Q648 731 678 745Q708 759 727 781Q746 803 755.50 829.50Q765 856 764 881L867 786Q867 728 838.50 670.50Q810 613 760 565.50Q710 518 645 489.50Q580 461 508 461Q376 461 279.50 520.50Q183 580 130.50 690.50Q78 801 78 954Q78 1097 144 1216Q210 1335 326 1406Q442 1477 591 1477Q695 1477 788 1439.50Q881 1402 952 1326.50Q1023 1251 1063.50 1139.50Q1104 1028 1104 879L1104 758Q1104 595 1064.50 468.50Q1025 342 954 249Q883 156 785.50 96Q688 36 572 6.50Q456-23 328-23L303-23L303 279L322 279Z"  horiz-adv-x="1192" vert-adv-y="2048"  />

      
      <glyph glyph-name="uni3a" unicode="&#x3a;" d="M117 175Q117 254 172 307Q227 360 314 360Q402 360 456.50 307Q511 254 511 175Q511 96 456.50 42.50Q402-11 314-11Q227-11 172 42.50Q117 96 117 175M117 949Q117 1028 172 1081Q227 1134 314 1134Q402 1134 456.50 1081Q511 1028 511 949Q511 870 456.50 816.50Q402 763 314 763Q227 763 172 816.50Q117 870 117 949Z"  horiz-adv-x="635" vert-adv-y="2048"  />

      
      <glyph glyph-name="uni3b" unicode="&#x3b;" d="M105 949Q105 1028 160 1081Q215 1134 302 1134Q390 1134 444.50 1081Q499 1028 499 949Q499 870 444.50 816.50Q390 763 302 763Q215 763 160 816.50Q105 870 105 949M463 36Q463-92 400.50-215.50Q338-339 249-417L68-333Q88-287 113.50-239.50Q139-192 157.50-131.50Q176-71 176 13L176 265L464 265L463 36Z"  horiz-adv-x="608" vert-adv-y="2048"  />

      
      <glyph glyph-name="uni3c" unicode="&#x3c;" d="M932 437L932 96L43 452L43 710L337 621L932 437M337 579L43 493L43 751L932 1107L932 768L337 579Z"  horiz-adv-x="1044" vert-adv-y="2048"  />

      
      <glyph glyph-name="uni3d" unicode="&#x3d;" d="M1061 699L127 699L127 988L1061 988L1061 699M1061 255L127 255L127 544L1061 544L1061 255Z"  horiz-adv-x="1205" vert-adv-y="2048"  />

      
      <glyph glyph-name="uni3e" unicode="&#x3e;" d="M111 765L111 1105L994 750L994 491L702 581L111 765M702 625L994 708L994 451L111 95L111 435L702 625Z"  horiz-adv-x="1050" vert-adv-y="2048"  />

      
      <glyph glyph-name="uni3f" unicode="&#x3f;" d="M340 473Q340 560 352.50 629.50Q365 699 395.50 754Q426 809 479 851Q525 887 557.50 921.50Q590 956 608 990Q626 1024 626 1058Q626 1127 597 1157Q568 1187 510 1187Q465 1187 427.50 1153Q390 1119 388 1039L26 1039Q28 1196 92.50 1292Q157 1388 266 1432Q375 1476 510 1476Q733 1476 860.50 1375.50Q988 1275 988 1076Q988 990 955 929Q922 868 867.50 815.50Q813 763 746 701Q688 651 668 602Q648 553 645 473L340 473M297 174Q297 254 352 307Q407 360 495 360Q584 360 638.50 307Q693 254 693 174Q693 95 638.50 41.50Q584-12 495-12Q407-12 352 41.50Q297 95 297 174Z"  horiz-adv-x="1056" vert-adv-y="2048"  />

      
      <glyph glyph-name="uni40" unicode="&#x40;" d="M1754 559Q1750 450 1722.50 346.50Q1695 243 1640 160Q1585 77 1500.50 28Q1416-21 1297-21Q1170-21 1089 62Q1008 145 1015 287L1066 880L1306 880L1255 287Q1250 253 1255.50 230.50Q1261 208 1274.50 194.50Q1288 181 1306 175.50Q1324 170 1344 170Q1399 170 1442 219.50Q1485 269 1511.50 354.50Q1538 440 1541 547Q1551 746 1491 898Q1431 1050 1298.50 1135.50Q1166 1221 957 1221Q756 1221 611.50 1118.50Q467 1016 386.50 842.50Q306 669 295 454Q287 275 323.50 143.50Q360 12 437-74Q514-160 629.50-202Q745-244 894-244Q981-244 1071.50-225.50Q1162-207 1225-182L1264-364Q1194-409 1088.50-431Q983-453 890-453Q619-453 430-352.50Q241-252 146.50-50.50Q52 151 63 454Q72 658 138 832Q204 1006 320.50 1134.50Q437 1263 599 1334.50Q761 1406 961 1406Q1224 1406 1405 1298.50Q1586 1191 1675.50 1000Q1765 809 1754 559M764 439Q758 356 769 300.50Q780 245 808.50 217.50Q837 190 881 190Q901 190 928.50 203.50Q956 217 984.50 259Q1013 301 1033 385L1132 260Q1086 122 1001.50 53Q917-16 796-16Q699-16 627 40Q555 96 520 198.50Q485 301 498 439Q519 607 586 730.50Q653 854 755.50 922Q858 990 985 990Q1106 990 1174 956Q1242 922 1306 880L1190 707Q1162 732 1115.50 756.50Q1069 781 1006 781Q927 781 878 741Q829 701 802.50 625Q776 549 764 439Z"  horiz-adv-x="1829" vert-adv-y="2048"  />

      
      <glyph glyph-name="uni41" unicode="&#x41;" d="M396 0L-7 0L527 1456L781 1456L737 1105L396 0M671 1105L622 1456L879 1456L1416 0L1013 0L671 1105M1009 244L262 244L262 547L1009 547L1009 244Z"  horiz-adv-x="1409" vert-adv-y="2048"  />

      
      <glyph glyph-name="uni42" unicode="&#x42;" d="M337 603L335 856L634 856Q751 856 798 891.50Q845 927 845 998Q845 1082 796 1117.50Q747 1153 637 1153L479 1153L479 0L103 0L103 1456L637 1456Q911 1456 1065.50 1355.50Q1220 1255 1220 1050Q1220 961 1182 881.50Q1144 802 1053.50 753Q963 704 805 705L707 603L337 603M246 0L374 302L693 302Q794 302 834 344Q874 386 874 441Q874 492 857.50 528Q841 564 804.50 583.50Q768 603 707 603L407 603L409 856L763 856L851 753Q1002 763 1088.50 716.50Q1175 670 1211.50 593.50Q1248 517 1248 435Q1248 218 1108 109Q968 0 693 0L246 0Z"  horiz-adv-x="1329" vert-adv-y="2048"  />

      
      <glyph glyph-name="uni43" unicode="&#x43;" d="M1297 501Q1291 347 1215 229.50Q1139 112 1004.50 46Q870-20 688-20Q491-20 351 66.50Q211 153 137.50 314Q64 475 64 698L64 757Q64 981 141 1142Q218 1303 356.50 1390Q495 1477 682 1477Q876 1477 1008.50 1407Q1141 1337 1213.50 1216Q1286 1095 1299 943L925 943Q923 1057 870 1113Q817 1169 682 1169Q601 1169 548.50 1130.50Q496 1092 470.50 1002.50Q445 913 445 759L445 698Q445 543 467.50 453.50Q490 364 543.50 326Q597 288 688 288Q763 288 815 310Q867 332 894.50 379Q922 426 923 501L1297 501Z"  horiz-adv-x="1346" vert-adv-y="2048"  />

      
      <glyph glyph-name="uni44" unicode="&#x44;" d="M262 0L264 302L583 302Q678 302 743 346Q808 390 842 479Q876 568 876 703L876 754Q876 888 842.50 976.50Q809 1065 742.50 1109Q676 1153 577 1153L256 1153L256 1456L577 1456Q777 1456 930.50 1366Q1084 1276 1171 1117.50Q1258 959 1258 752L1258 703Q1258 497 1171 338Q1084 179 932 89.50Q780 0 583 0L262 0M479 0L103 0L103 1456L479 1456L479 0Z"  horiz-adv-x="1323" vert-adv-y="2048"  />

      
      <glyph glyph-name="uni45" unicode="&#x45;" d="M1115 0L346 0L346 302L1115 302L1115 0M479 0L103 0L103 1456L479 1456L479 0M1016 601L346 601L346 892L1016 892L1016 601M1118 1153L346 1153L346 1456L1118 1456L1118 1153Z"  horiz-adv-x="1144" vert-adv-y="2048"  />

      
      <glyph glyph-name="uni46" unicode="&#x46;" d="M479 0L103 0L103 1456L479 1456L479 0M1030 561L374 561L374 863L1030 863L1030 561M1084 1153L374 1153L374 1456L1084 1456L1084 1153Z"  horiz-adv-x="1116" vert-adv-y="2048"  />

      
      <glyph glyph-name="uni47" unicode="&#x47;" d="M1309 180Q1270 138 1192.50 91.50Q1115 45 998 12.50Q881-20 723-20Q527-20 381.50 62.50Q236 145 155.50 304.50Q75 464 75 694L75 760Q75 991 156 1151Q237 1311 379 1394Q521 1477 703 1477Q908 1477 1036 1412.50Q1164 1348 1229 1233Q1294 1118 1308 968L947 968Q938 1038 912 1084Q886 1130 839 1153Q792 1176 716 1176Q637 1176 578.50 1132Q520 1088 488 996.50Q456 905 456 762L456 694Q456 554 486.50 462.50Q517 371 582 326.50Q647 282 750 282Q801 282 836.50 289.50Q872 297 896 308Q920 319 933 330L933 528L706 528L706 794L1309 794L1309 180Z"  horiz-adv-x="1396" vert-adv-y="2048"  />

      
      <glyph glyph-name="uni48" unicode="&#x48;" d="M1083 590L354 590L354 892L1083 892L1083 590M479 0L103 0L103 1456L479 1456L479 0M1335 0L961 0L961 1456L1335 1456L1335 0Z"  horiz-adv-x="1439" vert-adv-y="2048"  />

      
      <glyph glyph-name="uni49" unicode="&#x49;" d="M500 0L126 0L126 1456L500 1456L500 0Z"  horiz-adv-x="626" vert-adv-y="2048"  />

      
      <glyph glyph-name="uni4a" unicode="&#x4a;" d="M675 1456L1049 1456L1049 463Q1049 317 981.50 208.50Q914 100 799 40Q684-20 541-20Q394-20 279 30Q164 80 98 183.50Q32 287 32 448L409 448Q409 346 443 314Q477 282 541 282Q585 282 615 304Q645 326 660 366.50Q675 407 675 463L675 1456Z"  horiz-adv-x="1154" vert-adv-y="2048"  />

      
      <glyph glyph-name="uni4b" unicode="&#x4b;" d="M479 0L103 0L103 1456L479 1456L479 0M787 703L454 335L384 692L591 1023L881 1456L1344 1456L787 703M546 639L838 858L1340 0L896 0L546 639Z"  horiz-adv-x="1311" vert-adv-y="2048"  />

      
      <glyph glyph-name="uni4c" unicode="&#x4c;" d="M1078 0L346 0L346 302L1078 302L1078 0M478 0L103 0L103 1456L478 1456L478 0Z"  horiz-adv-x="1114" vert-adv-y="2048"  />

      
      <glyph glyph-name="uni4d" unicode="&#x4d;" d="M595 1456L898 494L1200 1456L1504 1456L1021 0L774 0L291 1456L595 1456M420 1456L479 280L479 0L103 0L103 1456L420 1456M1693 1456L1693 0L1316 0L1316 280L1375 1456L1693 1456Z"  horiz-adv-x="1798" vert-adv-y="2048"  />

      
      <glyph glyph-name="uni4e" unicode="&#x4e;" d="M1333 0L959 0L478 842L478 0L103 0L103 1456L478 1456L959 614L959 1456L1333 1456L1333 0Z"  horiz-adv-x="1437" vert-adv-y="2048"  />

      
      <glyph glyph-name="uni4f" unicode="&#x4f;" d="M1352 706Q1352 480 1269.50 317.50Q1187 155 1042 67.50Q897-20 710-20Q521-20 375 67.50Q229 155 146.50 317.50Q64 480 64 706L64 749Q64 975 146 1137.50Q228 1300 373.50 1388Q519 1476 708 1476Q895 1476 1040.50 1388Q1186 1300 1269 1137.50Q1352 975 1352 749L1352 706M971 751Q971 889 940.50 982Q910 1075 851 1122Q792 1169 708 1169Q620 1169 562 1122Q504 1075 475 982Q446 889 446 751L446 706Q446 571 475.50 477Q505 383 563.50 334.50Q622 286 710 286Q794 286 852.50 334.50Q911 383 941 477Q971 571 971 706L971 751Z"  horiz-adv-x="1418" vert-adv-y="2048"  />

      
      <glyph glyph-name="uni50" unicode="&#x50;" d="M339 474L339 777L694 777Q762 777 804 799Q846 821 866 859.50Q886 898 886 948Q886 1002 866 1049Q846 1096 804 1124.50Q762 1153 694 1153L479 1153L479 0L103 0L103 1456L694 1456Q871 1456 999.50 1390Q1128 1324 1197.50 1210Q1267 1096 1267 950Q1267 808 1197.50 701Q1128 594 999.50 534Q871 474 694 474L339 474Z"  horiz-adv-x="1342" vert-adv-y="2048"  />

      
      <glyph glyph-name="uni51" unicode="&#x51;" d="M1339-66L1107-269L700 60L925 263L1339-66M1355 706Q1355 480 1272.50 317.50Q1190 155 1045 67.50Q900-20 713-20Q524-20 378 67.50Q232 155 149.50 317.50Q67 480 67 706L67 749Q67 975 149 1137.50Q231 1300 376.50 1388Q522 1476 711 1476Q898 1476 1043.50 1388Q1189 1300 1272 1137.50Q1355 975 1355 749L1355 706M974 751Q974 889 943 982Q912 1075 853.50 1122Q795 1169 711 1169Q623 1169 564.50 1122Q506 1075 477 982Q448 889 448 751L448 706Q448 571 477.50 477Q507 383 566 334.50Q625 286 713 286Q797 286 855 334.50Q913 383 943.50 477Q974 571 974 706L974 751Z"  horiz-adv-x="1418" vert-adv-y="2048"  />

      
      <glyph glyph-name="uni52" unicode="&#x52;" d="M686 1456Q857 1456 982 1405.50Q1107 1355 1175 1257Q1243 1159 1243 1014Q1243 884 1204.50 799.50Q1166 715 1097.50 661.50Q1029 608 937 570L814 495L339 495L337 798L682 798Q744 798 785.50 818Q827 838 847.50 877.50Q868 917 868 975Q868 1059 822 1106Q776 1153 686 1153L479 1153L479 0L104 0L104 1456L686 1456M573 641L971 644L1291 16L1291 0L889 0L573 641Z"  horiz-adv-x="1337" vert-adv-y="2048"  />

      
      <glyph glyph-name="uni53" unicode="&#x53;" d="M844 392Q844 431 827.50 461Q811 491 759.50 520.50Q708 550 603 585Q509 617 420 658Q331 699 260 754.50Q189 810 147 885.50Q105 961 105 1062Q105 1190 179 1282.50Q253 1375 381 1425.50Q509 1476 672 1476Q833 1476 956.50 1421.50Q1080 1367 1150.50 1265Q1221 1163 1221 1021L847 1021Q847 1068 827.50 1104Q808 1140 767.50 1160Q727 1180 664 1180Q603 1180 561.50 1163Q520 1146 499.50 1118.50Q479 1091 479 1057Q479 1018 511 989Q543 960 600 935Q657 910 732 885Q888 835 996.50 768.50Q1105 702 1162 610.50Q1219 519 1219 394Q1219 261 1152.50 168.50Q1086 76 964 28Q842-20 677-20Q563-20 453.50 9Q344 38 255.50 99Q167 160 114.50 255.50Q62 351 62 484L438 484Q438 424 452.50 384Q467 344 497 319.50Q527 295 572 284.50Q617 274 677 274Q739 274 775.50 291Q812 308 828 335Q844 362 844 392Z"  horiz-adv-x="1289" vert-adv-y="2048"  />

      
      <glyph glyph-name="uni54" unicode="&#x54;" d="M831 0L456 0L456 1456L831 1456L831 0M1261 1153L35 1153L35 1456L1261 1456L1261 1153Z"  horiz-adv-x="1298" vert-adv-y="2048"  />

      
      <glyph glyph-name="uni55" unicode="&#x55;" d="M1258 1456L1258 513Q1258 341 1186.50 222Q1115 103 985.50 41.50Q856-20 681-20Q508-20 376.50 41.50Q245 103 172 222Q99 341 99 513L99 1456L476 1456L476 513Q476 430 499 379Q522 328 568 305Q614 282 681 282Q749 282 793.50 305Q838 328 860.50 379Q883 430 883 513L883 1456L1258 1456Z"  horiz-adv-x="1361" vert-adv-y="2048"  />

      
      <glyph glyph-name="uni56" unicode="&#x56;" d="M952 1456L1372 1456L886 0L615 0L663 375L952 1456M698 375L749 0L476 0L-7 1456L411 1456L698 375Z"  horiz-adv-x="1364" vert-adv-y="2048"  />

      
      <glyph glyph-name="uni57" unicode="&#x57;" d="M724 1456L905 1456L1015 1397L710 0L508 0L438 69L724 1456M631 54L554 0L321 0L18 1456L391 1456L631 54M1379 1456L1750 1456L1448 0L1215 0L1140 62L1379 1456M1335 60L1261 0L1059 0L747 1399L861 1456L1041 1456L1335 60Z"  horiz-adv-x="1774" vert-adv-y="2048"  />

      
      <glyph glyph-name="uni58" unicode="&#x58;" d="M657 996L876 1456L1304 1456L905 733L1314 0L882 0L657 468L432 0L0 0L409 733L10 1456L438 1456L657 996Z"  horiz-adv-x="1314" vert-adv-y="2048"  />

      
      <glyph glyph-name="uni59" unicode="&#x59;" d="M646 854L895 1456L1299 1456L837 518L837 0L456 0L456 518L-7 1456L397 1456L646 854Z"  horiz-adv-x="1292" vert-adv-y="2048"  />

      
      <glyph glyph-name="uni5a" unicode="&#x5a;" d="M1207 0L149 0L149 302L1207 302L1207 0M337 0L65 0L65 200L941 1456L1202 1456L1202 1261L337 0M1082 1153L56 1153L56 1456L1082 1456L1082 1153Z"  horiz-adv-x="1252" vert-adv-y="2048"  />

      
      <glyph glyph-name="uni5b" unicode="&#x5b;" d="M573 1442L464 1442L464-85L573-85L573-357L102-357L102 1715L573 1715L573 1442Z"  horiz-adv-x="588" vert-adv-y="2048"  />

      
      <glyph glyph-name="uni5c" unicode="&#x5c;" d="M-27 1456L349 1456L957-125L580-125L-27 1456Z"  horiz-adv-x="882" vert-adv-y="2048"  />

      
      <glyph glyph-name="uni5d" unicode="&#x5d;" d="M16 1715L487 1715L487-357L16-357L16-85L126-85L126 1442L16 1442L16 1715Z"  horiz-adv-x="588" vert-adv-y="2048"  />

      
      <glyph glyph-name="uni5e" unicode="&#x5e;" d="M301 729L32 729L331 1456L530 1456L470 1181L301 729M457 1181L398 1456L597 1456L896 729L627 729L457 1181Z"  horiz-adv-x="923" vert-adv-y="2048"  />

      
      <glyph glyph-name="uni5f" unicode="&#x5f;" d="M907-279L-1-279L-1 0L907 0L907-279Z"  horiz-adv-x="909" vert-adv-y="2048"  />

      
      <glyph glyph-name="uni60" unicode="&#x60;" d="M628 1216L337 1216L48 1536L427 1536L628 1216Z"  horiz-adv-x="708" vert-adv-y="2048"  />

      
      <glyph glyph-name="uni61" unicode="&#x61;" d="M641 711Q641 771 615.50 806.50Q590 842 528 842Q495 842 472.50 832Q450 822 438.50 800Q427 778 427 741L67 741Q67 847 126 928Q185 1009 293 1055.50Q401 1102 547 1102Q677 1102 780 1058.50Q883 1015 943 927.50Q1003 840 1003 709L1003 282Q1003 165 1015.50 112Q1028 59 1050 18L1050 0L690 0Q665 53 653 130Q641 207 641 291L641 711M686 469L547 469Q462 469 432 423Q402 377 402 326Q402 289 429.50 266.50Q457 244 498 244Q549 244 584.50 262.50Q620 281 638 306Q656 331 653 350L730 199Q710 160 685.50 121.50Q661 83 625 51Q589 19 537-0.50Q485-20 411-20Q312-20 227.50 21Q143 62 92 136Q41 210 41 308Q41 475 164 570Q287 665 550 665L684 665L686 469Z"  horiz-adv-x="1088" vert-adv-y="2048"  />

      
      <glyph glyph-name="uni62" unicode="&#x62;" d="M452 1536L452 279L414 0L92 0L92 1536L452 1536M1107 533Q1107 369 1062.50 244Q1018 119 925 49.50Q832-20 686-20Q555-20 474 57.50Q393 135 348 264.50Q303 394 281 549L281 537Q303 690 347.50 818.50Q392 947 473 1024.50Q554 1102 684 1102Q831 1102 924.50 1030Q1018 958 1062.50 834.50Q1107 711 1107 554L1107 533M747 554Q747 624 736 682.50Q725 741 692.50 776.50Q660 812 593 812Q543 812 509 796.50Q475 781 455 749.50Q435 718 427.50 670.50Q420 623 423 560L423 526Q419 441 433.50 383.50Q448 326 487 297Q526 268 595 268Q664 268 696 300.50Q728 333 737.50 393Q747 453 747 533L747 554Z"  horiz-adv-x="1155" vert-adv-y="2048"  />

      
      <glyph glyph-name="uni63" unicode="&#x63;" d="M553 270Q597 270 627 285Q657 300 671.50 328.50Q686 357 685 397L1022 397Q1024 270 963.50 176.50Q903 83 798.50 31.50Q694-20 561-20Q390-20 276.50 52Q163 124 106 248.50Q49 373 49 531L49 550Q49 708 105.50 833Q162 958 275.50 1030Q389 1102 559 1102Q697 1102 801.50 1050.50Q906 999 965 900Q1024 801 1022 658L685 658Q686 700 672.50 735Q659 770 629 791Q599 812 550 812Q487 812 457 776.50Q427 741 418 681.50Q409 622 409 550L409 531Q409 457 417.50 398Q426 339 457 304.50Q488 270 553 270Z"  horiz-adv-x="1067" vert-adv-y="2048"  />

      
      <glyph glyph-name="uni64" unicode="&#x64;" d="M702 1536L1064 1536L1064 0L740 0L702 257L702 1536M47 549Q47 713 94.50 837.50Q142 962 236 1032Q330 1102 469 1102Q592 1102 674.50 1024.50Q757 947 805 816.50Q853 686 874 526L874 538Q853 390 804.50 262.50Q756 135 673.50 57.50Q591-20 467-20Q329-20 235.50 51.50Q142 123 94.50 247Q47 371 47 528L47 549M407 528Q407 455 420.50 396.50Q434 338 467 304Q500 270 560 270Q621 270 660.50 299Q700 328 718 383Q736 438 731 515L731 549Q734 618 724 668Q714 718 693 749.50Q672 781 639 796.50Q606 812 562 812Q504 812 470 778Q436 744 421.50 685Q407 626 407 549L407 528Z"  horiz-adv-x="1155" vert-adv-y="2048"  />

      
      <glyph glyph-name="uni65" unicode="&#x65;" d="M624-20Q444-20 317.50 53Q191 126 125 245.50Q59 365 59 504L59 541Q59 696 117 823.50Q175 951 292 1026.50Q409 1102 586 1102Q743 1102 854 1037.50Q965 973 1024.50 853.50Q1084 734 1084 568L1084 417L194 417L194 648L732 648L732 677Q733 724 716 754Q699 784 665.50 798Q632 812 583 812Q513 812 478 773Q443 734 431 672.50Q419 611 419 541L419 504Q419 432 446 379.50Q473 327 524.50 299Q576 271 648 271Q714 271 780.50 294Q847 317 893 375L1055 168Q1005 98 893.50 39Q782-20 624-20Z"  horiz-adv-x="1122" vert-adv-y="2048"  />

      
      <glyph glyph-name="uni66" unicode="&#x66;" d="M162 0L162 1162Q162 1354 277 1455.50Q392 1557 587 1557Q632 1557 672 1550.50Q712 1544 749 1535L751 1259Q734 1264 715 1266Q696 1268 670 1268Q600 1268 562 1240.50Q524 1213 524 1162L524 0L162 0M728 822L8 822L8 1082L728 1082L728 822Z"  horiz-adv-x="750" vert-adv-y="2048"  />

      
      <glyph glyph-name="uni67" unicode="&#x67;" d="M1092 1082L1092 47Q1092-105 1021.50-210.50Q951-316 824-370.50Q697-425 529-425Q457-425 380.50-407Q304-389 236.50-354Q169-319 124-269L274-46Q312-85 373.50-116.50Q435-148 517-148Q621-148 675.50-95.50Q730-43 730 51L730 822L765 1082L1092 1082M50 549Q50 713 104 837.50Q158 962 258.50 1032Q359 1102 497 1102Q610 1102 681.50 1057.50Q753 1013 795.50 934Q838 855 861.50 750.50Q885 646 902 526L902 538Q879 390 834 262.50Q789 135 707.50 57.50Q626-20 495-20Q358-20 258 51.50Q158 123 104 247Q50 371 50 528L50 549M411 528Q411 455 430.50 396.50Q450 338 489 304Q528 270 588 270Q657 270 699 299Q741 328 759 383Q777 438 772 515L772 549Q775 618 765.50 668Q756 718 733.50 749.50Q711 781 675.50 796.50Q640 812 590 812Q532 812 492 778Q452 744 431.50 685Q411 626 411 549L411 528Z"  horiz-adv-x="1183" vert-adv-y="2048"  />

      
      <glyph glyph-name="uni68" unicode="&#x68;" d="M441 0L80 0L80 1536L441 1536L441 0M316 567Q315 723 363.50 843.50Q412 964 500.50 1033Q589 1102 708 1102Q815 1102 897.50 1059.50Q980 1017 1026.50 921Q1073 825 1073 664L1073 0L711 0L711 666Q711 725 694 756.50Q677 788 645 800Q613 812 568 812Q512 812 478.50 795.50Q445 779 427.50 747.50Q410 716 404.50 672Q399 628 399 574L316 567Z"  horiz-adv-x="1159" vert-adv-y="2048"  />

      
      <glyph glyph-name="uni69" unicode="&#x69;" d="M468 0L107 0L107 1082L468 1082L468 0M87 1356Q87 1436 142 1486Q197 1536 285 1536Q374 1536 428.50 1486Q483 1436 483 1356Q483 1277 428.50 1226.50Q374 1176 285 1176Q197 1176 142 1226.50Q87 1277 87 1356Z"  horiz-adv-x="575" vert-adv-y="2048"  />

      
      <glyph glyph-name="uni6a" unicode="&#x6a;" d="M476 1082L476-14Q476-219 361.50-328Q247-437 50-437Q5-437-32.50-433.50Q-70-430-115-420L-116-135Q-90-139-68-141.50Q-46-144-20-144Q45-144 79.50-111.50Q114-79 114-14L114 1082L476 1082M89 1356Q89 1436 144 1486Q199 1536 287 1536Q376 1536 430.50 1486Q485 1436 485 1356Q485 1277 430.50 1226.50Q376 1176 287 1176Q199 1176 144 1226.50Q89 1277 89 1356Z"  horiz-adv-x="562" vert-adv-y="2048"  />

      
      <glyph glyph-name="uni6b" unicode="&#x6b;" d="M452 0L91 0L91 1537L452 1537L452 0M679 520L428 272L269 500L478 781L713 1082L1144 1082L679 520M486 482L753 669L1168 0L756 0L486 482Z"  horiz-adv-x="1133" vert-adv-y="2048"  />

      
      <glyph glyph-name="uni6c" unicode="&#x6c;" d="M468 0L107 0L107 1536L468 1536L468 0Z"  horiz-adv-x="575" vert-adv-y="2048"  />

      
      <glyph glyph-name="uni6d" unicode="&#x6d;" d="M453 0L92 0L92 1082L430 1082L453 851L453 0M328 567Q327 723 374 843.50Q421 964 514.50 1033Q608 1102 745 1102Q885 1102 972 1013.50Q1059 925 1059 722L1059 0L698 0L698 671Q698 733 684.50 763Q671 793 645 802.50Q619 812 581 812Q541 812 509 795.50Q477 779 454.50 747.50Q432 716 420.50 672Q409 628 409 574L328 567M919 554Q918 715 963 838.50Q1008 962 1099.50 1032Q1191 1102 1328 1102Q1427 1102 1503 1062.50Q1579 1023 1622.50 929.50Q1666 836 1666 675L1666 0L1304 0L1304 675Q1304 734 1290 763Q1276 792 1250.50 802Q1225 812 1188 812Q1144 812 1112 793.50Q1080 775 1059 740.50Q1038 706 1027.50 658Q1017 610 1017 552L919 554Z"  horiz-adv-x="1758" vert-adv-y="2048"  />

      
      <glyph glyph-name="uni6e" unicode="&#x6e;" d="M442 0L82 0L82 1082L419 1082L442 851L442 0M317 567Q316 739 368 858.50Q420 978 514.50 1040Q609 1102 734 1102Q834 1102 910 1062Q986 1022 1029.50 929Q1073 836 1073 675L1073 0L711 0L711 676Q711 734 694.50 763Q678 792 646.50 802Q615 812 569 812Q521 812 488.50 795.50Q456 779 436.50 747.50Q417 716 408.50 672Q400 628 400 574L317 567Z"  horiz-adv-x="1159" vert-adv-y="2048"  />

      
      <glyph glyph-name="uni6f" unicode="&#x6f;" d="M49 550Q49 709 109 833.50Q169 958 286 1030Q403 1102 574 1102Q747 1102 864.50 1030Q982 958 1041.50 833.50Q1101 709 1101 550L1101 531Q1101 373 1041.50 248Q982 123 865 51.50Q748-20 576-20Q404-20 286.50 51.50Q169 123 109 248Q49 373 49 531L49 550M410 531Q410 457 423.50 397.50Q437 338 473 304Q509 270 576 270Q642 270 678 304Q714 338 727.50 397.50Q741 457 741 531L741 550Q741 622 727.50 681.50Q714 741 678 776.50Q642 812 574 812Q508 812 472.50 776.50Q437 741 423.50 681.50Q410 622 410 550L410 531Z"  horiz-adv-x="1152" vert-adv-y="2048"  />

      
      <glyph glyph-name="uni70" unicode="&#x70;" d="M452-416L92-416L92 1082L428 1082L452 874L452-416M1107 534Q1107 377 1059 251.50Q1011 126 917.50 53Q824-20 686-20Q556-20 475 59Q394 138 349.50 267Q305 396 282 544L282 532Q304 692 348.50 821Q393 950 474 1026Q555 1102 685 1102Q823 1102 917 1033.50Q1011 965 1059 842Q1107 719 1107 555L1107 534M747 555Q747 632 733 689.50Q719 747 685.50 779.50Q652 812 594 812Q544 812 510.50 797.50Q477 783 457 752.50Q437 722 429.50 673Q422 624 424 555L424 521Q420 445 434.50 388.50Q449 332 488 301Q527 270 596 270Q656 270 688.50 305.50Q721 341 734 401Q747 461 747 534L747 555Z"  horiz-adv-x="1155" vert-adv-y="2048"  />

      
      <glyph glyph-name="uni71" unicode="&#x71;" d="M702 851L753 1082L1064 1082L1064-416L702-416L702 851M47 552Q47 716 95 840Q143 964 237 1033Q331 1102 468 1102Q599 1102 679.50 1025Q760 948 805 818.50Q850 689 872 530L872 541Q849 393 804 265Q759 137 678 58.50Q597-20 466-20Q329-20 235.50 52.50Q142 125 94.50 249.50Q47 374 47 531L47 552M407 531Q407 459 420 399.50Q433 340 466.50 305Q500 270 559 270Q629 270 667.50 300Q706 330 720.50 386Q735 442 730 519L730 553Q733 622 725.50 671Q718 720 698 751.50Q678 783 644.50 797.50Q611 812 561 812Q503 812 469 779Q435 746 421 687.50Q407 629 407 552L407 531Z"  horiz-adv-x="1153" vert-adv-y="2048"  />

      
      <glyph glyph-name="uni72" unicode="&#x72;" d="M452 0L92 0L92 1082L428 1082L452 793L452 0M758 738Q737 740 701.50 743Q666 746 644 746Q568 746 520.50 726.50Q473 707 452 666Q431 625 432 558L369 612Q369 759 406 869.50Q443 980 510.50 1041Q578 1102 669 1102Q694 1102 719.50 1099.50Q745 1097 764 1090L758 738Z"  horiz-adv-x="784" vert-adv-y="2048"  />

      
      <glyph glyph-name="uni73" unicode="&#x73;" d="M647 309Q647 334 629.50 350Q612 366 568 380.50Q524 395 444 412Q340 435 253 477.50Q166 520 114.50 588Q63 656 63 752Q63 845 116 925Q169 1005 270 1053.50Q371 1102 515 1102Q663 1102 771 1057Q879 1012 937.50 932Q996 852 996 745L636 745Q636 804 609 831Q582 858 514 858Q486 858 460.50 848Q435 838 419.50 819Q404 800 404 771Q404 746 422.50 726.50Q441 707 478 693Q515 679 572 670Q679 652 775.50 616Q872 580 933 510Q994 440 994 319Q994 223 935.50 146Q877 69 769 24.50Q661-20 514-20Q356-20 248 37Q140 94 84.50 180.50Q29 267 29 354L365 354Q367 311 386.50 282.50Q406 254 441 239.50Q476 225 524 225Q565 225 592 235Q619 245 633 264Q647 283 647 309Z"  horiz-adv-x="1052" vert-adv-y="2048"  />

      
      <glyph glyph-name="uni74" unicode="&#x74;" d="M676 822L11 822L11 1082L676 1082L676 822M503 1351L503 373Q503 335 512 313.50Q521 292 544.50 283Q568 274 609 274Q637 274 656 275Q675 276 691 279L690 11Q644-5 597-12.50Q550-20 494-20Q382-20 303.50 15.50Q225 51 184 126.50Q143 202 143 321L143 1351L503 1351Z"  horiz-adv-x="708" vert-adv-y="2048"  />

      
      <glyph glyph-name="uni75" unicode="&#x75;" d="M713 1082L1074 1082L1074 0L737 0L713 266L713 1082M838 490Q838 343 792 228Q746 113 658 46.50Q570-20 445-20Q284-20 183.50 73.50Q83 167 83 381L83 1082L443 1082L443 379Q443 345 456.50 320.50Q470 296 497.50 283Q525 270 565 270Q636 270 675.50 298Q715 326 731 375.50Q747 425 747 488L838 490Z"  horiz-adv-x="1159" vert-adv-y="2048"  />

      
      <glyph glyph-name="uni76" unicode="&#x76;" d="M684 1082L1063 1082L715 0L491 0L485 252L684 1082M575 253L571 0L347 0L-1 1082L380 1082L575 253Z"  horiz-adv-x="1065" vert-adv-y="2048"  />

      
      <glyph glyph-name="uni77" unicode="&#x77;" d="M614 1082L838 1082L763 661L571 0L392 0L419 344L614 1082M477 353L485 0L268 0L17 1082L362 1082L477 353M1117 1082L1461 1082L1212 0L994 0L1000 371L1117 1082M1062 344L1088 0L907 0L720 658L647 1082L864 1082L1062 344Z"  horiz-adv-x="1482" vert-adv-y="2048"  />

      
      <glyph glyph-name="uni78" unicode="&#x78;" d="M537 811L679 1082L1052 1082L775 556L1066 0L690 0L536 294L385 0L8 0L299 556L24 1082L401 1082L537 811Z"  horiz-adv-x="1061" vert-adv-y="2048"  />

      
      <glyph glyph-name="uni79" unicode="&#x79;" d="M694 1082L1080 1082L649-159Q635-200 611-248Q587-296 546.50-339Q506-382 442.50-409.50Q379-437 285-437Q251-437 231-435.50Q211-434 192-429Q173-424 141-416L141-148Q153-148 161.50-147.50Q170-147 182-147Q262-147 294.50-127.50Q327-108 340-74L420 131L694 1082M575 355L612-47L372-34L-9 1082L377 1082L575 355Z"  horiz-adv-x="1069" vert-adv-y="2048"  />

      
      <glyph glyph-name="uni7a" unicode="&#x7a;" d="M990 0L150 0L150 290L990 290L990 0M312 0L65 0L65 205L735 1082L983 1082L983 883L312 0M866 792L85 792L85 1082L866 1082L866 792Z"  horiz-adv-x="1061" vert-adv-y="2048"  />

      
      <glyph glyph-name="uni7b" unicode="&#x7b;" d="M623 1403Q551 1375 527.50 1301.50Q504 1228 504 1132L504 932Q504 830 456 747Q408 664 305.50 615Q203 566 38 566L38 747Q120 747 156 797Q192 847 192 932L192 1132Q192 1237 225 1328.50Q258 1420 337.50 1489.50Q417 1559 555 1597L623 1403M555-354Q417-315 337.50-245.50Q258-176 225-84.50Q192 7 192 112L192 312Q192 396 156 446Q120 496 38 496L38 678Q203 678 305.50 629Q408 580 456 497.50Q504 415 504 312L504 112Q504 17 527.50-56.50Q551-130 623-159L555-354Z"  horiz-adv-x="665" vert-adv-y="2048"  />

      
      <glyph glyph-name="uni7c" unicode="&#x7c;" d="M366-270L172-270L172 1456L366 1456L366-270Z"  horiz-adv-x="533" vert-adv-y="2048"  />

      
      <glyph glyph-name="uni7d" unicode="&#x7d;" d="M112 1597Q251 1559 330 1489.50Q409 1420 442 1328.50Q475 1237 475 1132L475 932Q475 847 511 797Q547 747 629 747L629 566Q464 566 361.50 615Q259 664 211 747Q163 830 163 932L163 1132Q163 1228 139.50 1301.50Q116 1375 44 1403L112 1597M44-159Q116-130 139.50-56.50Q163 17 163 112L163 312Q163 415 211 498Q259 581 361.50 630Q464 679 629 679L629 496Q547 496 511 446Q475 396 475 312L475 112Q475 7 442-84.50Q409-176 330-245.50Q251-315 112-354L44-159Z"  horiz-adv-x="665" vert-adv-y="2048"  />

      
      <glyph glyph-name="uni7e" unicode="&#x7e;" d="M1193 805Q1193 662 1149.50 562Q1106 462 1029 409.50Q952 357 853 357Q777 357 716 386.50Q655 416 587 484Q552 520 519 538.50Q486 557 451 557Q403 557 372.50 509Q342 461 342 396L89 401Q89 546 132 644.50Q175 743 251.50 794Q328 845 426 845Q502 845 567.50 814.50Q633 784 696 719Q731 684 763.50 665Q796 646 829 646Q876 646 906.50 693.50Q937 741 937 807L1193 805Z"  horiz-adv-x="1285" vert-adv-y="2048"  />

      
      <glyph glyph-name="unia1" unicode="&#xa1;" d="M171 609L462 609L508-375L124-375L171 609M517 916Q517 837 462.50 783Q408 729 319 729Q231 729 176.50 783Q122 837 122 916Q122 996 176.50 1049Q231 1102 319 1102Q408 1102 462.50 1049Q517 996 517 916Z"  horiz-adv-x="633" vert-adv-y="2048"  />

      
      <glyph glyph-name="unia2" unicode="&#xa2;" d="M719 1023L508 1023L508 1318L719 1318L719 1023M719-245L508-245L508 49L719 49L719-245M600 270Q644 270 674 285Q704 300 718.50 328.50Q733 357 732 397L1069 397Q1071 270 1010.50 176.50Q950 83 845.50 31.50Q741-20 608-20Q437-20 323.50 52Q210 124 153 248.50Q96 373 96 531L96 550Q96 708 152.50 833Q209 958 322.50 1030Q436 1102 606 1102Q744 1102 848.50 1050.50Q953 999 1012 900Q1071 801 1069 658L732 658Q733 700 719.50 735Q706 770 676 791Q646 812 597 812Q534 812 504 776.50Q474 741 465 681.50Q456 622 456 550L456 531Q456 457 464.50 398Q473 339 504 304.50Q535 270 600 270Z"  horiz-adv-x="1218" vert-adv-y="2048"  />

      
      <glyph glyph-name="unia3" unicode="&#xa3;" d="M107 0L107 302L1185 302L1185 0L107 0M104 544L104 835L934 835L934 544L104 544M648 464Q648 362 598 300.50Q548 239 417 191L210 302Q239 309 250.50 327.50Q262 346 264.50 374Q267 402 267 436L249 1039Q249 1177 305.50 1274.50Q362 1372 465.50 1423.50Q569 1475 709 1475Q944 1475 1068 1355.50Q1192 1236 1192 1039L840 1039Q840 1091 824 1120Q808 1149 780.50 1161Q753 1173 719 1173Q676 1173 649 1141Q622 1109 622 1039L648 464Z"  horiz-adv-x="1236" vert-adv-y="2048"  />

      
      <glyph glyph-name="unia4" unicode="&#xa4;" d="M296 608Q296 518 327 440.50Q358 363 412.50 306Q467 249 539.50 217Q612 185 696 185Q779 185 851.50 217Q924 249 979 306Q1034 363 1065 440.50Q1096 518 1096 608Q1096 698 1065 775Q1034 852 979 909.50Q924 967 851.50 998.50Q779 1030 696 1030Q612 1030 539.50 998.50Q467 967 412.50 909.50Q358 852 327 775Q296 698 296 608M100 608Q100 741 146.50 855Q193 969 275 1054Q357 1139 465 1186.50Q573 1234 696 1234Q819 1234 926.50 1186.50Q1034 1139 1116 1054Q1198 969 1244 855Q1290 741 1290 608Q1290 475 1244 361Q1198 247 1116 161.50Q1034 76 926.50 28Q819-20 696-20Q573-20 465 28Q357 76 275 161.50Q193 247 146.50 361Q100 475 100 608M1129 906L981 1059L1182 1265L1331 1112L1129 906M214-26L65 126L267 331L416 180L214-26M981 179L1129 331L1331 126L1182-27L981 179M65 1112L214 1264L416 1058L267 906L65 1112Z"  horiz-adv-x="1389" vert-adv-y="2048"  />

      
      <glyph glyph-name="unia5" unicode="&#xa5;" d="M1003 538L70 538L70 747L1003 747L1003 538M1003 249L70 249L70 457L1003 457L1003 249M725 1456L1106 1456L720 524L523 524L476 739L725 1456M644 729L593 524L396 524L8 1456L389 1456L644 729M740 0L366 0L366 752L740 752L740 0Z"  horiz-adv-x="1114" vert-adv-y="2048"  />

      
      <glyph glyph-name="unia6" unicode="&#xa6;" d="M115-270L115 528L426 528L426-270L115-270M426 698L115 698L115 1456L426 1456L426 698Z"  horiz-adv-x="534" vert-adv-y="2048"  />

      
      <glyph glyph-name="unia7" unicode="&#xa7;" d="M666 320Q753 320 801.50 361.50Q850 403 850 470Q850 506 827.50 533Q805 560 750.50 585Q696 610 598 639Q446 683 335.50 736Q225 789 165.50 871Q106 953 106 1084Q106 1203 173 1291Q240 1379 361.50 1427.50Q483 1476 647 1476Q897 1476 1041 1366.50Q1185 1257 1185 1052L824 1052Q824 1090 804.50 1120Q785 1150 746 1167.50Q707 1185 647 1185Q551 1185 509.50 1156.50Q468 1128 468 1086Q468 1051 487.50 1027.50Q507 1004 560.50 984Q614 964 716 938Q872 900 981 847Q1090 794 1147 714.50Q1204 635 1204 516Q1204 334 1057.50 246Q911 158 666 158L666 320M615 716Q529 716 490.50 675.50Q452 635 452 571Q452 530 471 503.50Q490 477 543 454Q596 431 697 400Q855 359 965 306Q1075 253 1132.50 170Q1190 87 1190-45Q1190-230 1043-327Q896-424 653-424Q548-424 448-404.50Q348-385 268-339Q188-293 140.50-214Q93-135 93-16L454-17Q454-56 471-79Q488-102 516-113.50Q544-125 580-128.50Q616-132 653-132Q741-132 785.50-111Q830-90 830-45Q830-14 808 9Q786 32 731 54.50Q676 77 577 103Q426 143 317 195Q208 247 150 326Q92 405 92 523Q92 699 235 790.50Q378 882 615 882L615 716Z"  horiz-adv-x="1308" vert-adv-y="2048"  />

      
      <glyph glyph-name="unia8" unicode="&#xa8;" d="M89 1361Q89 1421 136 1462Q183 1503 248 1503Q313 1503 360 1462Q407 1421 407 1361Q407 1300 360 1259Q313 1218 248 1218Q183 1218 136 1259Q89 1300 89 1361M615 1361Q615 1421 662 1462Q709 1503 774 1503Q839 1503 885.50 1462Q932 1421 932 1361Q932 1300 885.50 1259Q839 1218 774 1218Q709 1218 662 1259Q615 1300 615 1361Z"  horiz-adv-x="1023" vert-adv-y="2048"  />

      
      <glyph glyph-name="unia9" unicode="&#xa9;" d="M1116 595Q1116 438 1025 359.50Q934 281 778 281Q616 281 521.50 388.50Q427 496 427 668L427 790Q427 962 521.50 1069.50Q616 1177 778 1177Q934 1177 1025.50 1098Q1117 1019 1117 862L953 862Q953 956 908.50 995.50Q864 1035 778 1035Q716 1035 674 1004Q632 973 611 918Q590 863 590 791L590 668Q590 558 637 490Q684 422 778 422Q864 422 908 461Q952 500 952 595L1116 595M210 729Q210 598 255 485Q300 372 380 288Q460 204 566 157Q672 110 793 110Q913 110 1018.50 157Q1124 204 1204 288Q1284 372 1329.50 485Q1375 598 1375 729Q1375 860 1329.50 972.50Q1284 1085 1204 1169Q1124 1253 1018.50 1299.50Q913 1346 793 1346Q672 1346 566 1299.50Q460 1253 380 1169Q300 1085 255 972.50Q210 860 210 729M83 729Q83 888 138 1024Q193 1160 291 1261.50Q389 1363 517.50 1419.50Q646 1476 793 1476Q940 1476 1068.50 1419.50Q1197 1363 1294.50 1261.50Q1392 1160 1447.50 1024Q1503 888 1503 729Q1503 570 1447.50 434Q1392 298 1294.50 196Q1197 94 1068.50 37Q940-20 793-20Q646-20 517.50 37Q389 94 291 196Q193 298 138 434Q83 570 83 729Z"  horiz-adv-x="1604" vert-adv-y="2048"  />

      
      <glyph glyph-name="uniaa" unicode="&#xaa;" d="M571 1201Q571 1260 544 1290.50Q517 1321 461 1321Q400 1321 365 1297Q330 1273 330 1228L148 1243Q148 1344 233.50 1410Q319 1476 461 1476Q593 1476 674 1406.50Q755 1337 755 1200L755 886Q755 837 760.50 793Q766 749 781 705L595 705Q582 740 576.50 780Q571 820 571 861L571 1201M617 1029L475 1029Q391 1029 353 997Q315 965 315 924Q315 885 342.50 863.50Q370 842 426 842Q465 842 506 859.50Q547 877 574.50 903Q602 929 602 952L620 830Q605 799 574.50 766.50Q544 734 496 712.50Q448 691 380 691Q260 691 195.50 753.50Q131 816 131 920Q131 1030 215.50 1090.50Q300 1151 474 1151L616 1151L617 1029Z"  horiz-adv-x="905" vert-adv-y="2048"  />

      
      <glyph glyph-name="uniab" unicode="&#xab;" d="M316 505L58 506L58 519L329 911L546 911L316 505M546 109L329 109L58 500L58 513L316 514L546 109M740 505L482 506L482 519L753 911L970 911L740 505M970 109L753 109L482 500L482 513L740 514L970 109Z"  horiz-adv-x="1066" vert-adv-y="2048"  />

      
      <glyph glyph-name="uniac" unicode="&#xac;" d="M964 629L126 629L126 809L964 809L964 629M964 372L753 372L753 730L964 730L964 372Z"  horiz-adv-x="1126" vert-adv-y="2048"  />

      
      <glyph glyph-name="uniad" unicode="&#xad;" d="M773 481L160 481L160 772L773 772L773 481Z"  horiz-adv-x="600" vert-adv-y="2048"  />

      
      <glyph glyph-name="uniae" unicode="&#xae;" d="M605 651L603 791L773 791Q843 791 896 819Q949 847 949 902Q949 973 911 1000.50Q873 1028 778 1028L652 1028L652 315L494 315L494 1167L778 1167Q927 1167 1016.50 1098.50Q1106 1030 1106 900Q1106 819 1048.50 767.50Q991 716 884 687Q881 687 877.50 679.50Q874 672 871 672Q854 662 849.50 657.50Q845 653 840.50 652Q836 651 816 651L605 651M828 775Q986 775 1045 702Q1104 629 1104 516L1104 458Q1104 421 1107.50 387.50Q1111 354 1121 331L1121 315L959 315Q949 341 947.50 389Q946 437 946 459L946 515Q946 583 914.50 617Q883 651 806 651L828 775M211 729Q211 598 256 485Q301 372 381 288Q461 204 567 157Q673 110 794 110Q914 110 1019.50 157Q1125 204 1205 288Q1285 372 1330.50 485Q1376 598 1376 729Q1376 860 1330.50 972.50Q1285 1085 1205 1169Q1125 1253 1019.50 1299.50Q914 1346 794 1346Q673 1346 567 1299.50Q461 1253 381 1169Q301 1085 256 972.50Q211 860 211 729M84 729Q84 888 139 1024Q194 1160 292 1261.50Q390 1363 518.50 1419.50Q647 1476 794 1476Q940 1476 1068.50 1419.50Q1197 1363 1295 1261.50Q1393 1160 1448.50 1024Q1504 888 1504 729Q1504 570 1448.50 434Q1393 298 1295 196Q1197 94 1068.50 37Q940-20 794-20Q647-20 518.50 37Q390 94 292 196Q194 298 139 434Q84 570 84 729Z"  horiz-adv-x="1604" vert-adv-y="2048"  />

      
      <glyph glyph-name="uniaf" unicode="&#xaf;" d="M889 1276L185 1276L185 1461L889 1461L889 1276Z"  horiz-adv-x="1086" vert-adv-y="2048"  />

      
      <glyph glyph-name="unib0" unicode="&#xb0;" d="M123 1189Q123 1268 162 1333Q201 1398 265.50 1437Q330 1476 408 1476Q485 1476 548 1437Q611 1398 649 1333Q687 1268 687 1190Q687 1111 649 1046.50Q611 982 548 944Q485 906 408 906Q330 906 265.50 944Q201 982 162 1046.50Q123 1111 123 1189M286 1189Q286 1137 322.50 1103Q359 1069 408 1069Q457 1069 490.50 1103Q524 1137 524 1189Q524 1242 490.50 1277.50Q457 1313 408 1313Q359 1313 322.50 1277.50Q286 1242 286 1189Z"  horiz-adv-x="817" vert-adv-y="2048"  />

      
      <glyph glyph-name="unib1" unicode="&#xb1;" d="M1001 700L85 700L85 1004L1001 1004L1001 700M698 370L384 370L384 1299L698 1299L698 370M981 1L99 1L99 297L981 297L981 1Z"  horiz-adv-x="1105" vert-adv-y="2048"  />

      
      <glyph glyph-name="unib2" unicode="&#xb2;" d="M701 667L67 667L67 827L352 1074Q399 1113 423 1154.50Q447 1196 447 1212Q447 1243 428 1260Q409 1277 371 1277Q330 1277 309 1248Q288 1219 288 1184L49 1184Q49 1262 87 1326.50Q125 1391 194.50 1429.50Q264 1468 358 1468Q515 1468 599.50 1402Q684 1336 684 1211Q684 1149 660 1102Q636 1055 584.50 1008.50Q533 962 450 902L383 857L701 857L701 667Z"  horiz-adv-x="771" vert-adv-y="2048"  />

      
      <glyph glyph-name="unib3" unicode="&#xb3;" d="M370 1146Q416 1146 437.50 1165.50Q459 1185 459 1219Q459 1236 441 1256.50Q423 1277 372 1277Q341 1277 316.50 1267.50Q292 1258 292 1240L54 1240Q54 1318 98.50 1368.50Q143 1419 214 1443.50Q285 1468 364 1468Q512 1468 604.50 1410Q697 1352 697 1240Q697 1173 656.50 1131Q616 1089 550 1068.50Q484 1048 408 1048L278 1048L278 1146L370 1146M278 1088L408 1088Q489 1088 558.50 1073Q628 1058 670 1015.50Q712 973 712 890Q712 778 611.50 717Q511 656 363 656Q290 656 215 680Q140 704 89.50 760.50Q39 817 39 913L279 913Q279 890 305.50 869Q332 848 381 848Q433 848 453 870.50Q473 893 473 918Q473 960 446 977Q419 994 370 994L278 994L278 1088Z"  horiz-adv-x="771" vert-adv-y="2048"  />

      
      <glyph glyph-name="unib4" unicode="&#xb4;" d="M285 1536L664 1536L380 1216L87 1216L285 1536Z"  horiz-adv-x="706" vert-adv-y="2048"  />

      
      <glyph glyph-name="unib5" unicode="&#xb5;" d="M84 568L375 568L421-416L37-416L84 568M713 1082L1074 1082L1074 0L737 0L713 266L713 1082M838 490Q838 343 792 228Q746 113 658 46.50Q570-20 445-20Q284-20 183.50 73.50Q83 167 83 381L83 1082L443 1082L443 379Q443 345 456.50 320.50Q470 296 497.50 283Q525 270 565 270Q636 270 675.50 298Q715 326 731 375.50Q747 425 747 488L838 490Z"  horiz-adv-x="1159" vert-adv-y="2048"  />

      
      <glyph glyph-name="unib6" unicode="&#xb6;" d="M653 0L653 520L573 520Q414 520 304.50 580.50Q195 641 138 747Q81 853 81 988Q81 1122 138 1228Q195 1334 304.50 1395Q414 1456 573 1456L895 1456L895 0L653 0Z"  horiz-adv-x="1005" vert-adv-y="2048"  />

      
      <glyph glyph-name="unib7" unicode="&#xb7;" d="M135 677Q135 756 190 809Q245 862 332 862Q420 862 474.50 809Q529 756 529 677Q529 598 474.50 544.50Q420 491 332 491Q245 491 190 544.50Q135 598 135 677Z"  horiz-adv-x="673" vert-adv-y="2048"  />

      
      <glyph glyph-name="unib8" unicode="&#xb8;" d="M388 12L377-49Q431-59 478-97.50Q525-136 525-222Q525-339 428-409.50Q331-480 143-480L136-273Q160-273 177-266Q194-259 203.50-243.50Q213-228 213-203Q213-168 182.50-154.50Q152-141 83-137L114 12L388 12Z"  horiz-adv-x="576" vert-adv-y="2048"  />

      
      <glyph glyph-name="unib9" unicode="&#xb9;" d="M551 667L315 667L315 1177L145 1147L145 1328L532 1452L551 1452L551 667Z"  horiz-adv-x="771" vert-adv-y="2048"  />

      
      <glyph glyph-name="uniba" unicode="&#xba;" d="M115 1119Q115 1275 210 1375.50Q305 1476 465 1476Q627 1476 721 1375.50Q815 1275 815 1119L815 1045Q815 889 721.50 789.50Q628 690 467 690Q305 690 210 789.50Q115 889 115 1045L115 1119M300 1045Q300 958 341 900.50Q382 843 467 843Q550 843 590.50 900.50Q631 958 631 1045L631 1119Q631 1205 590 1263Q549 1321 465 1321Q382 1321 341 1263Q300 1205 300 1119L300 1045Z"  horiz-adv-x="940" vert-adv-y="2048"  />

      
      <glyph glyph-name="unibb" unicode="&#xbb;" d="M303 511L561 510L561 497L291 105L73 105L303 511M291 907L561 516L561 503L303 502L73 907L291 907M726 511L984 510L984 497L714 105L496 105L726 511M714 907L984 516L984 503L726 502L496 907L714 907Z"  horiz-adv-x="1067" vert-adv-y="2048"  />

      
      <glyph glyph-name="unibc" unicode="&#xbc;" d="M570 107L404 191L1115 1329L1281 1245L570 107M551 546L315 546L315 1056L145 1026L145 1207L532 1331L551 1331L551 546M1512 152L873 152L857 311L1200 789L1387 789L1186 484L1079 346L1512 346L1512 152M1438 0L1199 0L1199 789L1438 789L1438 0Z"  horiz-adv-x="1575" vert-adv-y="2048"  />

      
      <glyph glyph-name="unibd" unicode="&#xbd;" d="M560 107L394 191L1105 1329L1271 1245L560 107M551 546L315 546L315 1056L145 1026L145 1207L532 1331L551 1331L551 546M1603 0L969 0L969 160L1254 407Q1301 446 1325 487.50Q1349 529 1349 545Q1349 576 1330 593Q1311 610 1273 610Q1232 610 1211 581Q1190 552 1190 517L951 517Q951 595 989 659.50Q1027 724 1096.50 762.50Q1166 801 1260 801Q1417 801 1501.50 735Q1586 669 1586 544Q1586 482 1562 435Q1538 388 1486.50 341.50Q1435 295 1352 235L1285 190L1603 190L1603 0Z"  horiz-adv-x="1673" vert-adv-y="2048"  />

      
      <glyph glyph-name="unibe" unicode="&#xbe;" d="M370 1018Q416 1018 437.50 1037.50Q459 1057 459 1091Q459 1108 441 1128.50Q423 1149 372 1149Q341 1149 316.50 1139.50Q292 1130 292 1112L54 1112Q54 1190 98.50 1240.50Q143 1291 214 1315.50Q285 1340 364 1340Q512 1340 604.50 1282Q697 1224 697 1112Q697 1045 656.50 1003Q616 961 550 940.50Q484 920 408 920L278 920L278 1018L370 1018M278 960L408 960Q489 960 558.50 945Q628 930 670 887.50Q712 845 712 762Q712 650 611.50 589Q511 528 363 528Q290 528 215 552Q140 576 89.50 632.50Q39 689 39 785L279 785Q279 762 305.50 741Q332 720 381 720Q433 720 453 742.50Q473 765 473 790Q473 832 446 849Q419 866 370 866L278 866L278 960M650 107L484 191L1195 1329L1361 1245L650 107M1592 152L953 152L937 311L1280 789L1467 789L1266 484L1159 346L1592 346L1592 152M1518 0L1279 0L1279 789L1518 789L1518 0Z"  horiz-adv-x="1655" vert-adv-y="2048"  />

      
      <glyph glyph-name="unibf" unicode="&#xbf;" d="M720 618Q720 531 709 462Q698 393 669 339Q640 285 586 242Q540 202 505 167Q470 132 451 95.50Q432 59 432 15Q432-46 462.50-71Q493-96 538-96Q592-96 629-62.50Q666-29 669 51L1030 51Q1028-105 963.50-201Q899-297 790-341Q681-385 546-385Q324-385 197.50-283.50Q71-182 71 15Q71 100 106.50 163Q142 226 199.50 281.50Q257 337 324 398Q362 432 380.50 462Q399 492 406 528.50Q413 565 414 618L720 618M774 917Q774 838 719.50 784.50Q665 731 577 731Q489 731 434 784.50Q379 838 379 917Q379 997 434 1050Q489 1103 577 1103Q665 1103 719.50 1050Q774 997 774 917Z"  horiz-adv-x="1054" vert-adv-y="2048"  />

      
      <glyph glyph-name="unic0" unicode="&#xc0;" d="M396 0L-7 0L527 1456L781 1456L737 1105L396 0M671 1105L622 1456L879 1456L1416 0L1013 0L671 1105M1009 244L262 244L262 547L1009 547L1009 244M911 1525L620 1525L331 1845L711 1845L911 1525Z"  horiz-adv-x="1409" vert-adv-y="2048"  />

      
      <glyph glyph-name="unic1" unicode="&#xc1;" d="M396 0L-7 0L527 1456L781 1456L737 1105L396 0M671 1105L622 1456L879 1456L1416 0L1013 0L671 1105M1009 244L262 244L262 547L1009 547L1009 244M726 1845L1105 1845L821 1525L528 1525L726 1845Z"  horiz-adv-x="1409" vert-adv-y="2048"  />

      
      <glyph glyph-name="unic2" unicode="&#xc2;" d="M396 0L-7 0L527 1456L781 1456L737 1105L396 0M671 1105L622 1456L879 1456L1416 0L1013 0L671 1105M1009 244L262 244L262 547L1009 547L1009 244M1146 1562L1146 1548L864 1548L706 1675L550 1548L274 1548L274 1566L604 1846L810 1846L1146 1562Z"  horiz-adv-x="1409" vert-adv-y="2048"  />

      
      <glyph glyph-name="unic3" unicode="&#xc3;" d="M396 0L-7 0L527 1456L781 1456L737 1105L396 0M671 1105L622 1456L879 1456L1416 0L1013 0L671 1105M1009 244L262 244L262 547L1009 547L1009 244Z"  horiz-adv-x="1409" vert-adv-y="2048"  />

      
      <glyph glyph-name="unic4" unicode="&#xc4;" d="M396 0L-7 0L527 1456L781 1456L737 1105L396 0M671 1105L622 1456L879 1456L1416 0L1013 0L671 1105M1009 244L262 244L262 547L1009 547L1009 244M282 1670Q282 1730 329 1771Q376 1812 441 1812Q506 1812 553 1771Q600 1730 600 1670Q600 1609 553 1568Q506 1527 441 1527Q376 1527 329 1568Q282 1609 282 1670M808 1670Q808 1730 855 1771Q902 1812 967 1812Q1032 1812 1078.50 1771Q1125 1730 1125 1670Q1125 1609 1078.50 1568Q1032 1527 967 1527Q902 1527 855 1568Q808 1609 808 1670Z"  horiz-adv-x="1409" vert-adv-y="2048"  />

      
      <glyph glyph-name="unic5" unicode="&#xc5;" d="M396 0L-7 0L527 1456L781 1456L737 1105L396 0M671 1105L622 1456L879 1456L1416 0L1013 0L671 1105M1009 244L262 244L262 547L1009 547L1009 244M480 1731Q480 1814 544.50 1874.50Q609 1935 709 1935Q809 1935 873 1874.50Q937 1814 937 1731Q937 1649 873 1590Q809 1531 709 1531Q609 1531 544.50 1590Q480 1649 480 1731M606 1731Q606 1688 633 1658.50Q660 1629 709 1629Q757 1629 784 1658.50Q811 1688 811 1731Q811 1773 784 1803.50Q757 1834 709 1834Q660 1834 633 1803.50Q606 1773 606 1731Z"  horiz-adv-x="1409" vert-adv-y="2048"  />

      
      <glyph glyph-name="unic6" unicode="&#xc6;" d="M431 0L14 0L736 1456L962 1456L1011 1290L431 0M1092 319L333 319L333 618L1092 618L1092 319M1857 0L1125 0L1125 295L1857 295L1857 0M1310 0L949 0L888 1456L1249 1456L1310 0M1715 593L1084 593L1084 888L1715 888L1715 593M1796 1161L1064 1161L1064 1456L1796 1456L1796 1161Z"  horiz-adv-x="1934" vert-adv-y="2048"  />

      
      <glyph glyph-name="unic7" unicode="&#xc7;" d="M1297 501Q1291 347 1215 229.50Q1139 112 1004.50 46Q870-20 688-20Q491-20 351 66.50Q211 153 137.50 314Q64 475 64 698L64 757Q64 981 141 1142Q218 1303 356.50 1390Q495 1477 682 1477Q876 1477 1008.50 1407Q1141 1337 1213.50 1216Q1286 1095 1299 943L925 943Q923 1057 870 1113Q817 1169 682 1169Q601 1169 548.50 1130.50Q496 1092 470.50 1002.50Q445 913 445 759L445 698Q445 543 467.50 453.50Q490 364 543.50 326Q597 288 688 288Q763 288 815 310Q867 332 894.50 379Q922 426 923 501L1297 501M829 14L818-47Q872-57 919-95.50Q966-134 966-220Q966-337 869-407.50Q772-478 584-478L577-271Q601-271 618-264Q635-257 644.50-241.50Q654-226 654-201Q654-166 623.50-152.50Q593-139 524-135L555 14L829 14Z"  horiz-adv-x="1346" vert-adv-y="2048"  />

      
      <glyph glyph-name="unic8" unicode="&#xc8;" d="M1115 0L346 0L346 302L1115 302L1115 0M479 0L103 0L103 1456L479 1456L479 0M1016 601L346 601L346 892L1016 892L1016 601M1118 1153L346 1153L346 1456L1118 1456L1118 1153M851 1524L560 1524L271 1844L651 1844L851 1524Z"  horiz-adv-x="1144" vert-adv-y="2048"  />

      
      <glyph glyph-name="unic9" unicode="&#xc9;" d="M1115 0L346 0L346 302L1115 302L1115 0M479 0L103 0L103 1456L479 1456L479 0M1016 601L346 601L346 892L1016 892L1016 601M1118 1153L346 1153L346 1456L1118 1456L1118 1153M666 1844L1045 1844L761 1524L468 1524L666 1844Z"  horiz-adv-x="1144" vert-adv-y="2048"  />

      
      <glyph glyph-name="unica" unicode="&#xca;" d="M1115 0L346 0L346 302L1115 302L1115 0M479 0L103 0L103 1456L479 1456L479 0M1016 601L346 601L346 892L1016 892L1016 601M1118 1153L346 1153L346 1456L1118 1456L1118 1153M1086 1561L1086 1547L804 1547L646 1674L490 1547L214 1547L214 1565L544 1845L750 1845L1086 1561Z"  horiz-adv-x="1144" vert-adv-y="2048"  />

      
      <glyph glyph-name="unicb" unicode="&#xcb;" d="M1115 0L346 0L346 302L1115 302L1115 0M479 0L103 0L103 1456L479 1456L479 0M1016 601L346 601L346 892L1016 892L1016 601M1118 1153L346 1153L346 1456L1118 1456L1118 1153M222 1669Q222 1729 269 1770Q316 1811 381 1811Q446 1811 493 1770Q540 1729 540 1669Q540 1608 493 1567Q446 1526 381 1526Q316 1526 269 1567Q222 1608 222 1669M748 1669Q748 1729 795 1770Q842 1811 907 1811Q972 1811 1018.50 1770Q1065 1729 1065 1669Q1065 1608 1018.50 1567Q972 1526 907 1526Q842 1526 795 1567Q748 1608 748 1669Z"  horiz-adv-x="1144" vert-adv-y="2048"  />

      
      <glyph glyph-name="unicc" unicode="&#xcc;" d="M500 0L126 0L126 1456L500 1456L500 0M516 1524L225 1524L-64 1844L316 1844L516 1524Z"  horiz-adv-x="626" vert-adv-y="2048"  />

      
      <glyph glyph-name="unicd" unicode="&#xcd;" d="M500 0L126 0L126 1456L500 1456L500 0M331 1844L710 1844L426 1524L133 1524L331 1844Z"  horiz-adv-x="626" vert-adv-y="2048"  />

      
      <glyph glyph-name="unice" unicode="&#xce;" d="M500 0L126 0L126 1456L500 1456L500 0M751 1561L751 1547L469 1547L311 1674L155 1547L-121 1547L-121 1565L209 1845L415 1845L751 1561Z"  horiz-adv-x="626" vert-adv-y="2048"  />

      
      <glyph glyph-name="unicf" unicode="&#xcf;" d="M500 0L126 0L126 1456L500 1456L500 0M-113 1669Q-113 1729-66 1770Q-19 1811 46 1811Q111 1811 158 1770Q205 1729 205 1669Q205 1608 158 1567Q111 1526 46 1526Q-19 1526-66 1567Q-113 1608-113 1669M413 1669Q413 1729 460 1770Q507 1811 572 1811Q637 1811 683.50 1770Q730 1729 730 1669Q730 1608 683.50 1567Q637 1526 572 1526Q507 1526 460 1567Q413 1608 413 1669Z"  horiz-adv-x="626" vert-adv-y="2048"  />

      
      <glyph glyph-name="unid0" unicode="&#xd0;" d="M262 0L264 302L583 302Q678 302 743 346Q808 390 842 479Q876 568 876 703L876 754Q876 888 842.50 976.50Q809 1065 742.50 1109Q676 1153 577 1153L256 1153L256 1456L577 1456Q777 1456 930.50 1366Q1084 1276 1171 1117.50Q1258 959 1258 752L1258 703Q1258 497 1171 338Q1084 179 932 89.50Q780 0 583 0L262 0M479 0L103 0L103 1456L479 1456L479 0M705 626L-38 626L-38 832L705 832L705 626Z"  horiz-adv-x="1323" vert-adv-y="2048"  />

      
      <glyph glyph-name="unid1" unicode="&#xd1;" d="M1333 0L959 0L478 842L478 0L103 0L103 1456L478 1456L959 614L959 1456L1333 1456L1333 0Z"  horiz-adv-x="1437" vert-adv-y="2048"  />

      
      <glyph glyph-name="unid2" unicode="&#xd2;" d="M1352 706Q1352 480 1269.50 317.50Q1187 155 1042 67.50Q897-20 710-20Q521-20 375 67.50Q229 155 146.50 317.50Q64 480 64 706L64 749Q64 975 146 1137.50Q228 1300 373.50 1388Q519 1476 708 1476Q895 1476 1040.50 1388Q1186 1300 1269 1137.50Q1352 975 1352 749L1352 706M971 751Q971 889 940.50 982Q910 1075 851 1122Q792 1169 708 1169Q620 1169 562 1122Q504 1075 475 982Q446 889 446 751L446 706Q446 571 475.50 477Q505 383 563.50 334.50Q622 286 710 286Q794 286 852.50 334.50Q911 383 941 477Q971 571 971 706L971 751M911 1524L620 1524L331 1844L711 1844L911 1524Z"  horiz-adv-x="1418" vert-adv-y="2048"  />

      
      <glyph glyph-name="unid3" unicode="&#xd3;" d="M1352 706Q1352 480 1269.50 317.50Q1187 155 1042 67.50Q897-20 710-20Q521-20 375 67.50Q229 155 146.50 317.50Q64 480 64 706L64 749Q64 975 146 1137.50Q228 1300 373.50 1388Q519 1476 708 1476Q895 1476 1040.50 1388Q1186 1300 1269 1137.50Q1352 975 1352 749L1352 706M971 751Q971 889 940.50 982Q910 1075 851 1122Q792 1169 708 1169Q620 1169 562 1122Q504 1075 475 982Q446 889 446 751L446 706Q446 571 475.50 477Q505 383 563.50 334.50Q622 286 710 286Q794 286 852.50 334.50Q911 383 941 477Q971 571 971 706L971 751M726 1844L1105 1844L821 1524L528 1524L726 1844Z"  horiz-adv-x="1418" vert-adv-y="2048"  />

      
      <glyph glyph-name="unid4" unicode="&#xd4;" d="M1352 706Q1352 480 1269.50 317.50Q1187 155 1042 67.50Q897-20 710-20Q521-20 375 67.50Q229 155 146.50 317.50Q64 480 64 706L64 749Q64 975 146 1137.50Q228 1300 373.50 1388Q519 1476 708 1476Q895 1476 1040.50 1388Q1186 1300 1269 1137.50Q1352 975 1352 749L1352 706M971 751Q971 889 940.50 982Q910 1075 851 1122Q792 1169 708 1169Q620 1169 562 1122Q504 1075 475 982Q446 889 446 751L446 706Q446 571 475.50 477Q505 383 563.50 334.50Q622 286 710 286Q794 286 852.50 334.50Q911 383 941 477Q971 571 971 706L971 751M1146 1561L1146 1547L864 1547L706 1674L550 1547L274 1547L274 1565L604 1845L810 1845L1146 1561Z"  horiz-adv-x="1418" vert-adv-y="2048"  />

      
      <glyph glyph-name="unid5" unicode="&#xd5;" d="M1352 706Q1352 480 1269.50 317.50Q1187 155 1042 67.50Q897-20 710-20Q521-20 375 67.50Q229 155 146.50 317.50Q64 480 64 706L64 749Q64 975 146 1137.50Q228 1300 373.50 1388Q519 1476 708 1476Q895 1476 1040.50 1388Q1186 1300 1269 1137.50Q1352 975 1352 749L1352 706M971 751Q971 889 940.50 982Q910 1075 851 1122Q792 1169 708 1169Q620 1169 562 1122Q504 1075 475 982Q446 889 446 751L446 706Q446 571 475.50 477Q505 383 563.50 334.50Q622 286 710 286Q794 286 852.50 334.50Q911 383 941 477Q971 571 971 706L971 751Z"  horiz-adv-x="1418" vert-adv-y="2048"  />

      
      <glyph glyph-name="unid6" unicode="&#xd6;" d="M1352 706Q1352 480 1269.50 317.50Q1187 155 1042 67.50Q897-20 710-20Q521-20 375 67.50Q229 155 146.50 317.50Q64 480 64 706L64 749Q64 975 146 1137.50Q228 1300 373.50 1388Q519 1476 708 1476Q895 1476 1040.50 1388Q1186 1300 1269 1137.50Q1352 975 1352 749L1352 706M971 751Q971 889 940.50 982Q910 1075 851 1122Q792 1169 708 1169Q620 1169 562 1122Q504 1075 475 982Q446 889 446 751L446 706Q446 571 475.50 477Q505 383 563.50 334.50Q622 286 710 286Q794 286 852.50 334.50Q911 383 941 477Q971 571 971 706L971 751M282 1669Q282 1729 329 1770Q376 1811 441 1811Q506 1811 553 1770Q600 1729 600 1669Q600 1608 553 1567Q506 1526 441 1526Q376 1526 329 1567Q282 1608 282 1669M808 1669Q808 1729 855 1770Q902 1811 967 1811Q1032 1811 1078.50 1770Q1125 1729 1125 1669Q1125 1608 1078.50 1567Q1032 1526 967 1526Q902 1526 855 1567Q808 1608 808 1669Z"  horiz-adv-x="1418" vert-adv-y="2048"  />

      
      <glyph glyph-name="unid7" unicode="&#xd7;" d="M49 411L828 1205L1034 1003L255 209L49 411M47 1003L253 1205L1032 411L826 209L47 1003Z"  horiz-adv-x="1086" vert-adv-y="2048"  />

      
      <glyph glyph-name="unid8" unicode="&#xd8;" d="M355-97L136-97L1056 1520L1275 1520L355-97M1364 706Q1364 480 1281.50 317.50Q1199 155 1054 67.50Q909-20 722-20Q533-20 387 67.50Q241 155 158.50 317.50Q76 480 76 706L76 749Q76 975 158 1137.50Q240 1300 385.50 1388Q531 1476 720 1476Q907 1476 1052.50 1388Q1198 1300 1281 1137.50Q1364 975 1364 749L1364 706M983 751Q983 889 952.50 982Q922 1075 863 1122Q804 1169 720 1169Q632 1169 574 1122Q516 1075 487 982Q458 889 458 751L458 706Q458 571 487.50 477Q517 383 575.50 334.50Q634 286 722 286Q806 286 864.50 334.50Q923 383 953 477Q983 571 983 706L983 751Z"  horiz-adv-x="1413" vert-adv-y="2048"  />

      
      <glyph glyph-name="unid9" unicode="&#xd9;" d="M1258 1456L1258 513Q1258 341 1186.50 222Q1115 103 985.50 41.50Q856-20 681-20Q508-20 376.50 41.50Q245 103 172 222Q99 341 99 513L99 1456L476 1456L476 513Q476 430 499 379Q522 328 568 305Q614 282 681 282Q749 282 793.50 305Q838 328 860.50 379Q883 430 883 513L883 1456L1258 1456M877 1525L586 1525L297 1845L677 1845L877 1525Z"  horiz-adv-x="1361" vert-adv-y="2048"  />

      
      <glyph glyph-name="unida" unicode="&#xda;" d="M1258 1456L1258 513Q1258 341 1186.50 222Q1115 103 985.50 41.50Q856-20 681-20Q508-20 376.50 41.50Q245 103 172 222Q99 341 99 513L99 1456L476 1456L476 513Q476 430 499 379Q522 328 568 305Q614 282 681 282Q749 282 793.50 305Q838 328 860.50 379Q883 430 883 513L883 1456L1258 1456M692 1845L1071 1845L787 1525L494 1525L692 1845Z"  horiz-adv-x="1361" vert-adv-y="2048"  />

      
      <glyph glyph-name="unidb" unicode="&#xdb;" d="M1258 1456L1258 513Q1258 341 1186.50 222Q1115 103 985.50 41.50Q856-20 681-20Q508-20 376.50 41.50Q245 103 172 222Q99 341 99 513L99 1456L476 1456L476 513Q476 430 499 379Q522 328 568 305Q614 282 681 282Q749 282 793.50 305Q838 328 860.50 379Q883 430 883 513L883 1456L1258 1456M1112 1562L1112 1548L830 1548L672 1675L516 1548L240 1548L240 1566L570 1846L776 1846L1112 1562Z"  horiz-adv-x="1361" vert-adv-y="2048"  />

      
      <glyph glyph-name="unidc" unicode="&#xdc;" d="M1258 1456L1258 513Q1258 341 1186.50 222Q1115 103 985.50 41.50Q856-20 681-20Q508-20 376.50 41.50Q245 103 172 222Q99 341 99 513L99 1456L476 1456L476 513Q476 430 499 379Q522 328 568 305Q614 282 681 282Q749 282 793.50 305Q838 328 860.50 379Q883 430 883 513L883 1456L1258 1456M248 1670Q248 1730 295 1771Q342 1812 407 1812Q472 1812 519 1771Q566 1730 566 1670Q566 1609 519 1568Q472 1527 407 1527Q342 1527 295 1568Q248 1609 248 1670M774 1670Q774 1730 821 1771Q868 1812 933 1812Q998 1812 1044.50 1771Q1091 1730 1091 1670Q1091 1609 1044.50 1568Q998 1527 933 1527Q868 1527 821 1568Q774 1609 774 1670Z"  horiz-adv-x="1361" vert-adv-y="2048"  />

      
      <glyph glyph-name="unidd" unicode="&#xdd;" d="M646 854L895 1456L1299 1456L837 518L837 0L456 0L456 518L-7 1456L397 1456L646 854M666 1846L1045 1846L761 1526L468 1526L666 1846Z"  horiz-adv-x="1292" vert-adv-y="2048"  />

      
      <glyph glyph-name="unide" unicode="&#xde;" d="M472 1456L472 0L110 0L110 1456L472 1456M656 1207Q841 1207 968 1147Q1095 1087 1160.50 981.50Q1226 876 1226 738Q1226 601 1160.50 495Q1095 389 968 329Q841 269 656 269L431 269L431 559L656 559Q731 559 777 583.50Q823 608 843.50 648.50Q864 689 864 736Q864 784 843.50 825.50Q823 867 777 892Q731 917 656 917L473 917L218 1207L656 1207Z"  horiz-adv-x="1271" vert-adv-y="2048"  />

      
      <glyph glyph-name="unidf" unicode="&#xdf;" d="M493 0L133 0L133 1094Q133 1327 274 1445.50Q415 1564 662 1564Q784 1564 887 1519Q990 1474 1052.50 1386.50Q1115 1299 1115 1171Q1115 1101 1101 1062.50Q1087 1024 1068.50 997Q1050 970 1036 935.50Q1022 901 1022 838Q1022 807 1049 774.50Q1076 742 1116 704Q1156 666 1195.50 619Q1235 572 1262 513.50Q1289 455 1289 381Q1289 259 1236 168.50Q1183 78 1075 29Q967-20 803-20Q754-20 703.50-15Q653-10 609.50 0Q566 10 538 25L600 307Q630 294 681.50 282.50Q733 271 806 271Q841 271 869 282.50Q897 294 913.50 318Q930 342 930 378Q930 422 903 456Q876 490 836 523Q796 556 755.50 595Q715 634 688 687Q661 740 661 815Q661 886 675 927Q689 968 707 998Q725 1028 739 1063Q753 1098 753 1156Q753 1189 736 1216Q719 1243 689.50 1258.50Q660 1274 620 1274Q563 1274 528 1236.50Q493 1199 493 1087L493 0Z"  horiz-adv-x="1343" vert-adv-y="2048"  />

      
      <glyph glyph-name="unie0" unicode="&#xe0;" d="M641 711Q641 771 615.50 806.50Q590 842 528 842Q495 842 472.50 832Q450 822 438.50 800Q427 778 427 741L67 741Q67 847 126 928Q185 1009 293 1055.50Q401 1102 547 1102Q677 1102 780 1058.50Q883 1015 943 927.50Q1003 840 1003 709L1003 282Q1003 165 1015.50 112Q1028 59 1050 18L1050 0L690 0Q665 53 653 130Q641 207 641 291L641 711M686 469L547 469Q462 469 432 423Q402 377 402 326Q402 289 429.50 266.50Q457 244 498 244Q549 244 584.50 262.50Q620 281 638 306Q656 331 653 350L730 199Q710 160 685.50 121.50Q661 83 625 51Q589 19 537-0.50Q485-20 411-20Q312-20 227.50 21Q143 62 92 136Q41 210 41 308Q41 475 164 570Q287 665 550 665L684 665L686 469M736 1216L445 1216L156 1536L536 1536L736 1216Z"  horiz-adv-x="1088" vert-adv-y="2048"  />

      
      <glyph glyph-name="unie1" unicode="&#xe1;" d="M641 711Q641 771 615.50 806.50Q590 842 528 842Q495 842 472.50 832Q450 822 438.50 800Q427 778 427 741L67 741Q67 847 126 928Q185 1009 293 1055.50Q401 1102 547 1102Q677 1102 780 1058.50Q883 1015 943 927.50Q1003 840 1003 709L1003 282Q1003 165 1015.50 112Q1028 59 1050 18L1050 0L690 0Q665 53 653 130Q641 207 641 291L641 711M686 469L547 469Q462 469 432 423Q402 377 402 326Q402 289 429.50 266.50Q457 244 498 244Q549 244 584.50 262.50Q620 281 638 306Q656 331 653 350L730 199Q710 160 685.50 121.50Q661 83 625 51Q589 19 537-0.50Q485-20 411-20Q312-20 227.50 21Q143 62 92 136Q41 210 41 308Q41 475 164 570Q287 665 550 665L684 665L686 469M551 1536L930 1536L646 1216L353 1216L551 1536Z"  horiz-adv-x="1088" vert-adv-y="2048"  />

      
      <glyph glyph-name="unie2" unicode="&#xe2;" d="M641 711Q641 771 615.50 806.50Q590 842 528 842Q495 842 472.50 832Q450 822 438.50 800Q427 778 427 741L67 741Q67 847 126 928Q185 1009 293 1055.50Q401 1102 547 1102Q677 1102 780 1058.50Q883 1015 943 927.50Q1003 840 1003 709L1003 282Q1003 165 1015.50 112Q1028 59 1050 18L1050 0L690 0Q665 53 653 130Q641 207 641 291L641 711M686 469L547 469Q462 469 432 423Q402 377 402 326Q402 289 429.50 266.50Q457 244 498 244Q549 244 584.50 262.50Q620 281 638 306Q656 331 653 350L730 199Q710 160 685.50 121.50Q661 83 625 51Q589 19 537-0.50Q485-20 411-20Q312-20 227.50 21Q143 62 92 136Q41 210 41 308Q41 475 164 570Q287 665 550 665L684 665L686 469M971 1253L971 1239L689 1239L531 1366L375 1239L99 1239L99 1257L429 1537L635 1537L971 1253Z"  horiz-adv-x="1088" vert-adv-y="2048"  />

      
      <glyph glyph-name="unie3" unicode="&#xe3;" d="M641 711Q641 771 615.50 806.50Q590 842 528 842Q495 842 472.50 832Q450 822 438.50 800Q427 778 427 741L67 741Q67 847 126 928Q185 1009 293 1055.50Q401 1102 547 1102Q677 1102 780 1058.50Q883 1015 943 927.50Q1003 840 1003 709L1003 282Q1003 165 1015.50 112Q1028 59 1050 18L1050 0L690 0Q665 53 653 130Q641 207 641 291L641 711M686 469L547 469Q462 469 432 423Q402 377 402 326Q402 289 429.50 266.50Q457 244 498 244Q549 244 584.50 262.50Q620 281 638 306Q656 331 653 350L730 199Q710 160 685.50 121.50Q661 83 625 51Q589 19 537-0.50Q485-20 411-20Q312-20 227.50 21Q143 62 92 136Q41 210 41 308Q41 475 164 570Q287 665 550 665L684 665L686 469Z"  horiz-adv-x="1088" vert-adv-y="2048"  />

      
      <glyph glyph-name="unie4" unicode="&#xe4;" d="M641 711Q641 771 615.50 806.50Q590 842 528 842Q495 842 472.50 832Q450 822 438.50 800Q427 778 427 741L67 741Q67 847 126 928Q185 1009 293 1055.50Q401 1102 547 1102Q677 1102 780 1058.50Q883 1015 943 927.50Q1003 840 1003 709L1003 282Q1003 165 1015.50 112Q1028 59 1050 18L1050 0L690 0Q665 53 653 130Q641 207 641 291L641 711M686 469L547 469Q462 469 432 423Q402 377 402 326Q402 289 429.50 266.50Q457 244 498 244Q549 244 584.50 262.50Q620 281 638 306Q656 331 653 350L730 199Q710 160 685.50 121.50Q661 83 625 51Q589 19 537-0.50Q485-20 411-20Q312-20 227.50 21Q143 62 92 136Q41 210 41 308Q41 475 164 570Q287 665 550 665L684 665L686 469M107 1361Q107 1421 154 1462Q201 1503 266 1503Q331 1503 378 1462Q425 1421 425 1361Q425 1300 378 1259Q331 1218 266 1218Q201 1218 154 1259Q107 1300 107 1361M633 1361Q633 1421 680 1462Q727 1503 792 1503Q857 1503 903.50 1462Q950 1421 950 1361Q950 1300 903.50 1259Q857 1218 792 1218Q727 1218 680 1259Q633 1300 633 1361Z"  horiz-adv-x="1088" vert-adv-y="2048"  />

      
      <glyph glyph-name="unie5" unicode="&#xe5;" d="M641 711Q641 771 615.50 806.50Q590 842 528 842Q495 842 472.50 832Q450 822 438.50 800Q427 778 427 741L67 741Q67 847 126 928Q185 1009 293 1055.50Q401 1102 547 1102Q677 1102 780 1058.50Q883 1015 943 927.50Q1003 840 1003 709L1003 282Q1003 165 1015.50 112Q1028 59 1050 18L1050 0L690 0Q665 53 653 130Q641 207 641 291L641 711M686 469L547 469Q462 469 432 423Q402 377 402 326Q402 289 429.50 266.50Q457 244 498 244Q549 244 584.50 262.50Q620 281 638 306Q656 331 653 350L730 199Q710 160 685.50 121.50Q661 83 625 51Q589 19 537-0.50Q485-20 411-20Q312-20 227.50 21Q143 62 92 136Q41 210 41 308Q41 475 164 570Q287 665 550 665L684 665L686 469M305 1421Q305 1504 369.50 1564.50Q434 1625 534 1625Q634 1625 698 1564.50Q762 1504 762 1421Q762 1339 698 1280Q634 1221 534 1221Q434 1221 369.50 1280Q305 1339 305 1421M431 1421Q431 1378 458 1348.50Q485 1319 534 1319Q582 1319 609 1348.50Q636 1378 636 1421Q636 1463 609 1493.50Q582 1524 534 1524Q485 1524 458 1493.50Q431 1463 431 1421Z"  horiz-adv-x="1088" vert-adv-y="2048"  />

      
      <glyph glyph-name="unie6" unicode="&#xe6;" d="M710 697Q710 750 679 781Q648 812 590 812Q526 812 492 789.50Q458 767 458 735L98 755Q98 856 159 934Q220 1012 331.50 1057Q443 1102 595 1102Q807 1102 933 1000Q1059 898 1059 695L1059 218L710 183L710 697M758 436L588 436Q533 436 495.50 420Q458 404 438.50 379Q419 354 419 326Q419 283 452.50 259.50Q486 236 557 236Q591 236 627 247.50Q663 259 694 277Q725 295 743.50 316.50Q762 338 761 358L922 191Q897 143 841 94.50Q785 46 697.50 13Q610-20 488-20Q280-20 169.50 75Q59 170 59 330Q59 488 193 574Q327 660 586 660L755 660L758 436M1236-20Q1066-20 948 44Q830 108 769 220.50Q708 333 708 478L708 564Q708 722 764 844Q820 966 935 1034.50Q1050 1103 1226 1102Q1439 1102 1563.50 968.50Q1688 835 1688 608L1688 416L844 416L844 648L1336 648L1336 673Q1336 720 1323 750.50Q1310 781 1285.50 796.50Q1261 812 1226 812Q1157 812 1121 780.50Q1085 749 1071.50 693Q1058 637 1058 564L1058 478Q1058 418 1080.50 371Q1103 324 1153.50 297.50Q1204 271 1286 271Q1382 271 1443 286.50Q1504 302 1567 327L1652 100Q1610 67 1544.50 39.50Q1479 12 1399.50-4Q1320-20 1236-20Z"  horiz-adv-x="1730" vert-adv-y="2048"  />

      
      <glyph glyph-name="unie7" unicode="&#xe7;" d="M553 270Q597 270 627 285Q657 300 671.50 328.50Q686 357 685 397L1022 397Q1024 270 963.50 176.50Q903 83 798.50 31.50Q694-20 561-20Q390-20 276.50 52Q163 124 106 248.50Q49 373 49 531L49 550Q49 708 105.50 833Q162 958 275.50 1030Q389 1102 559 1102Q697 1102 801.50 1050.50Q906 999 965 900Q1024 801 1022 658L685 658Q686 700 672.50 735Q659 770 629 791Q599 812 550 812Q487 812 457 776.50Q427 741 418 681.50Q409 622 409 550L409 531Q409 457 417.50 398Q426 339 457 304.50Q488 270 553 270M709 14L698-47Q752-57 799-95.50Q846-134 846-220Q846-337 749-407.50Q652-478 464-478L457-271Q481-271 498-264Q515-257 524.50-241.50Q534-226 534-201Q534-166 503.50-152.50Q473-139 404-135L435 14L709 14Z"  horiz-adv-x="1067" vert-adv-y="2048"  />

      
      <glyph glyph-name="unie8" unicode="&#xe8;" d="M624-20Q444-20 317.50 53Q191 126 125 245.50Q59 365 59 504L59 541Q59 696 117 823.50Q175 951 292 1026.50Q409 1102 586 1102Q743 1102 854 1037.50Q965 973 1024.50 853.50Q1084 734 1084 568L1084 417L194 417L194 648L732 648L732 677Q733 724 716 754Q699 784 665.50 798Q632 812 583 812Q513 812 478 773Q443 734 431 672.50Q419 611 419 541L419 504Q419 432 446 379.50Q473 327 524.50 299Q576 271 648 271Q714 271 780.50 294Q847 317 893 375L1055 168Q1005 98 893.50 39Q782-20 624-20M735 1217L444 1217L155 1537L535 1537L735 1217Z"  horiz-adv-x="1122" vert-adv-y="2048"  />

      
      <glyph glyph-name="unie9" unicode="&#xe9;" d="M624-20Q444-20 317.50 53Q191 126 125 245.50Q59 365 59 504L59 541Q59 696 117 823.50Q175 951 292 1026.50Q409 1102 586 1102Q743 1102 854 1037.50Q965 973 1024.50 853.50Q1084 734 1084 568L1084 417L194 417L194 648L732 648L732 677Q733 724 716 754Q699 784 665.50 798Q632 812 583 812Q513 812 478 773Q443 734 431 672.50Q419 611 419 541L419 504Q419 432 446 379.50Q473 327 524.50 299Q576 271 648 271Q714 271 780.50 294Q847 317 893 375L1055 168Q1005 98 893.50 39Q782-20 624-20M550 1537L929 1537L645 1217L352 1217L550 1537Z"  horiz-adv-x="1122" vert-adv-y="2048"  />

      
      <glyph glyph-name="uniea" unicode="&#xea;" d="M624-20Q444-20 317.50 53Q191 126 125 245.50Q59 365 59 504L59 541Q59 696 117 823.50Q175 951 292 1026.50Q409 1102 586 1102Q743 1102 854 1037.50Q965 973 1024.50 853.50Q1084 734 1084 568L1084 417L194 417L194 648L732 648L732 677Q733 724 716 754Q699 784 665.50 798Q632 812 583 812Q513 812 478 773Q443 734 431 672.50Q419 611 419 541L419 504Q419 432 446 379.50Q473 327 524.50 299Q576 271 648 271Q714 271 780.50 294Q847 317 893 375L1055 168Q1005 98 893.50 39Q782-20 624-20M970 1254L970 1240L688 1240L530 1367L374 1240L98 1240L98 1258L428 1538L634 1538L970 1254Z"  horiz-adv-x="1122" vert-adv-y="2048"  />

      
      <glyph glyph-name="unieb" unicode="&#xeb;" d="M624-20Q444-20 317.50 53Q191 126 125 245.50Q59 365 59 504L59 541Q59 696 117 823.50Q175 951 292 1026.50Q409 1102 586 1102Q743 1102 854 1037.50Q965 973 1024.50 853.50Q1084 734 1084 568L1084 417L194 417L194 648L732 648L732 677Q733 724 716 754Q699 784 665.50 798Q632 812 583 812Q513 812 478 773Q443 734 431 672.50Q419 611 419 541L419 504Q419 432 446 379.50Q473 327 524.50 299Q576 271 648 271Q714 271 780.50 294Q847 317 893 375L1055 168Q1005 98 893.50 39Q782-20 624-20M106 1362Q106 1422 153 1463Q200 1504 265 1504Q330 1504 377 1463Q424 1422 424 1362Q424 1301 377 1260Q330 1219 265 1219Q200 1219 153 1260Q106 1301 106 1362M632 1362Q632 1422 679 1463Q726 1504 791 1504Q856 1504 902.50 1463Q949 1422 949 1362Q949 1301 902.50 1260Q856 1219 791 1219Q726 1219 679 1260Q632 1301 632 1362Z"  horiz-adv-x="1122" vert-adv-y="2048"  />

      
      <glyph glyph-name="uniec" unicode="&#xec;" d="M481 0L119 0L119 1082L481 1082L481 0M505 1192L214 1192L-75 1512L305 1512L505 1192Z"  horiz-adv-x="599" vert-adv-y="2048"  />

      
      <glyph glyph-name="unied" unicode="&#xed;" d="M481 0L119 0L119 1082L481 1082L481 0M320 1512L699 1512L415 1192L122 1192L320 1512Z"  horiz-adv-x="599" vert-adv-y="2048"  />

      
      <glyph glyph-name="uniee" unicode="&#xee;" d="M481 0L119 0L119 1082L481 1082L481 0M740 1229L740 1215L458 1215L300 1342L144 1215L-132 1215L-132 1233L198 1513L404 1513L740 1229Z"  horiz-adv-x="599" vert-adv-y="2048"  />

      
      <glyph glyph-name="unief" unicode="&#xef;" d="M481 0L119 0L119 1082L481 1082L481 0M-125 1337Q-125 1397-78 1438Q-31 1479 34 1479Q99 1479 146 1438Q193 1397 193 1337Q193 1276 146 1235Q99 1194 34 1194Q-31 1194-78 1235Q-125 1276-125 1337M401 1337Q401 1397 448 1438Q495 1479 560 1479Q625 1479 671.50 1438Q718 1397 718 1337Q718 1276 671.50 1235Q625 1194 560 1194Q495 1194 448 1235Q401 1276 401 1337Z"  horiz-adv-x="599" vert-adv-y="2048"  />

      
      <glyph glyph-name="unif0" unicode="&#xf0;" d="M333 1579Q565 1536 745 1411.50Q925 1287 1028 1096.50Q1131 906 1131 662L1131 606Q1131 420 1058.50 279Q986 138 861 59Q736-20 577-20Q420-20 303 45.50Q186 111 121 221.50Q56 332 56 468Q56 615 107 725.50Q158 836 259.50 897.50Q361 959 511 959Q624 959 714.50 911Q805 863 862 776.50Q919 690 931 572L805 575Q805 595 792 615.50Q779 636 752.50 653Q726 670 685.50 681Q645 692 591 692Q531 692 492.50 665.50Q454 639 435 589Q416 539 416 468Q416 408 436 363.50Q456 319 493 294.50Q530 270 581 270Q646 270 687.50 307.50Q729 345 749 410Q769 475 769 557L769 664Q769 808 722.50 917.50Q676 1027 597 1105Q518 1183 419.50 1233Q321 1283 218 1309L333 1579M404 1019L322 1144L909 1505L989 1379L404 1019Z"  horiz-adv-x="1164" vert-adv-y="2048"  />

      
      <glyph glyph-name="unif1" unicode="&#xf1;" d="M442 0L82 0L82 1082L419 1082L442 851L442 0M317 567Q316 739 368 858.50Q420 978 514.50 1040Q609 1102 734 1102Q834 1102 910 1062Q986 1022 1029.50 929Q1073 836 1073 675L1073 0L711 0L711 676Q711 734 694.50 763Q678 792 646.50 802Q615 812 569 812Q521 812 488.50 795.50Q456 779 436.50 747.50Q417 716 408.50 672Q400 628 400 574L317 567Z"  horiz-adv-x="1159" vert-adv-y="2048"  />

      
      <glyph glyph-name="unif2" unicode="&#xf2;" d="M49 550Q49 709 109 833.50Q169 958 286 1030Q403 1102 574 1102Q747 1102 864.50 1030Q982 958 1041.50 833.50Q1101 709 1101 550L1101 531Q1101 373 1041.50 248Q982 123 865 51.50Q748-20 576-20Q404-20 286.50 51.50Q169 123 109 248Q49 373 49 531L49 550M410 531Q410 457 423.50 397.50Q437 338 473 304Q509 270 576 270Q642 270 678 304Q714 338 727.50 397.50Q741 457 741 531L741 550Q741 622 727.50 681.50Q714 741 678 776.50Q642 812 574 812Q508 812 472.50 776.50Q437 741 423.50 681.50Q410 622 410 550L410 531M782 1216L491 1216L202 1536L582 1536L782 1216Z"  horiz-adv-x="1152" vert-adv-y="2048"  />

      
      <glyph glyph-name="unif3" unicode="&#xf3;" d="M49 550Q49 709 109 833.50Q169 958 286 1030Q403 1102 574 1102Q747 1102 864.50 1030Q982 958 1041.50 833.50Q1101 709 1101 550L1101 531Q1101 373 1041.50 248Q982 123 865 51.50Q748-20 576-20Q404-20 286.50 51.50Q169 123 109 248Q49 373 49 531L49 550M410 531Q410 457 423.50 397.50Q437 338 473 304Q509 270 576 270Q642 270 678 304Q714 338 727.50 397.50Q741 457 741 531L741 550Q741 622 727.50 681.50Q714 741 678 776.50Q642 812 574 812Q508 812 472.50 776.50Q437 741 423.50 681.50Q410 622 410 550L410 531M596 1536L975 1536L691 1216L398 1216L596 1536Z"  horiz-adv-x="1152" vert-adv-y="2048"  />

      
      <glyph glyph-name="unif4" unicode="&#xf4;" d="M49 550Q49 709 109 833.50Q169 958 286 1030Q403 1102 574 1102Q747 1102 864.50 1030Q982 958 1041.50 833.50Q1101 709 1101 550L1101 531Q1101 373 1041.50 248Q982 123 865 51.50Q748-20 576-20Q404-20 286.50 51.50Q169 123 109 248Q49 373 49 531L49 550M410 531Q410 457 423.50 397.50Q437 338 473 304Q509 270 576 270Q642 270 678 304Q714 338 727.50 397.50Q741 457 741 531L741 550Q741 622 727.50 681.50Q714 741 678 776.50Q642 812 574 812Q508 812 472.50 776.50Q437 741 423.50 681.50Q410 622 410 550L410 531M1016 1253L1016 1239L734 1239L576 1366L420 1239L144 1239L144 1257L474 1537L680 1537L1016 1253Z"  horiz-adv-x="1152" vert-adv-y="2048"  />

      
      <glyph glyph-name="unif5" unicode="&#xf5;" d="M49 550Q49 709 109 833.50Q169 958 286 1030Q403 1102 574 1102Q747 1102 864.50 1030Q982 958 1041.50 833.50Q1101 709 1101 550L1101 531Q1101 373 1041.50 248Q982 123 865 51.50Q748-20 576-20Q404-20 286.50 51.50Q169 123 109 248Q49 373 49 531L49 550M410 531Q410 457 423.50 397.50Q437 338 473 304Q509 270 576 270Q642 270 678 304Q714 338 727.50 397.50Q741 457 741 531L741 550Q741 622 727.50 681.50Q714 741 678 776.50Q642 812 574 812Q508 812 472.50 776.50Q437 741 423.50 681.50Q410 622 410 550L410 531Z"  horiz-adv-x="1152" vert-adv-y="2048"  />

      
      <glyph glyph-name="unif6" unicode="&#xf6;" d="M49 550Q49 709 109 833.50Q169 958 286 1030Q403 1102 574 1102Q747 1102 864.50 1030Q982 958 1041.50 833.50Q1101 709 1101 550L1101 531Q1101 373 1041.50 248Q982 123 865 51.50Q748-20 576-20Q404-20 286.50 51.50Q169 123 109 248Q49 373 49 531L49 550M410 531Q410 457 423.50 397.50Q437 338 473 304Q509 270 576 270Q642 270 678 304Q714 338 727.50 397.50Q741 457 741 531L741 550Q741 622 727.50 681.50Q714 741 678 776.50Q642 812 574 812Q508 812 472.50 776.50Q437 741 423.50 681.50Q410 622 410 550L410 531M152 1361Q152 1421 199 1462Q246 1503 311 1503Q376 1503 423 1462Q470 1421 470 1361Q470 1300 423 1259Q376 1218 311 1218Q246 1218 199 1259Q152 1300 152 1361M678 1361Q678 1421 725 1462Q772 1503 837 1503Q902 1503 948.50 1462Q995 1421 995 1361Q995 1300 948.50 1259Q902 1218 837 1218Q772 1218 725 1259Q678 1300 678 1361Z"  horiz-adv-x="1152" vert-adv-y="2048"  />

      
      <glyph glyph-name="unif7" unicode="&#xf7;" d="M1107 549L59 549L59 815L1107 815L1107 549M383 1084Q383 1164 438 1214Q493 1264 580 1264Q668 1264 722.50 1214Q777 1164 777 1084Q777 1005 722.50 955Q668 905 580 905Q493 905 438 955Q383 1005 383 1084M383 275Q383 354 438 404Q493 454 580 454Q668 454 722.50 404Q777 354 777 275Q777 196 722.50 145.50Q668 95 580 95Q493 95 438 145.50Q383 196 383 275Z"  horiz-adv-x="1167" vert-adv-y="2048"  />

      
      <glyph glyph-name="unif8" unicode="&#xf8;" d="M339-147L152-147L815 1221L1002 1221L339-147M49 550Q49 709 109 833.50Q169 958 286 1030Q403 1102 574 1102Q747 1102 864.50 1030Q982 958 1041.50 833.50Q1101 709 1101 550L1101 531Q1101 373 1041.50 248Q982 123 865 51.50Q748-20 576-20Q404-20 286.50 51.50Q169 123 109 248Q49 373 49 531L49 550M410 531Q410 457 423.50 397.50Q437 338 473 304Q509 270 576 270Q642 270 678 304Q714 338 727.50 397.50Q741 457 741 531L741 550Q741 622 727.50 681.50Q714 741 678 776.50Q642 812 574 812Q508 812 472.50 776.50Q437 741 423.50 681.50Q410 622 410 550L410 531Z"  horiz-adv-x="1154" vert-adv-y="2048"  />

      
      <glyph glyph-name="unif9" unicode="&#xf9;" d="M713 1082L1074 1082L1074 0L737 0L713 266L713 1082M838 490Q838 343 792 228Q746 113 658 46.50Q570-20 445-20Q284-20 183.50 73.50Q83 167 83 381L83 1082L443 1082L443 379Q443 345 456.50 320.50Q470 296 497.50 283Q525 270 565 270Q636 270 675.50 298Q715 326 731 375.50Q747 425 747 488L838 490M781 1216L490 1216L201 1536L581 1536L781 1216Z"  horiz-adv-x="1159" vert-adv-y="2048"  />

      
      <glyph glyph-name="unifa" unicode="&#xfa;" d="M713 1082L1074 1082L1074 0L737 0L713 266L713 1082M838 490Q838 343 792 228Q746 113 658 46.50Q570-20 445-20Q284-20 183.50 73.50Q83 167 83 381L83 1082L443 1082L443 379Q443 345 456.50 320.50Q470 296 497.50 283Q525 270 565 270Q636 270 675.50 298Q715 326 731 375.50Q747 425 747 488L838 490M596 1536L975 1536L691 1216L398 1216L596 1536Z"  horiz-adv-x="1159" vert-adv-y="2048"  />

      
      <glyph glyph-name="unifb" unicode="&#xfb;" d="M713 1082L1074 1082L1074 0L737 0L713 266L713 1082M838 490Q838 343 792 228Q746 113 658 46.50Q570-20 445-20Q284-20 183.50 73.50Q83 167 83 381L83 1082L443 1082L443 379Q443 345 456.50 320.50Q470 296 497.50 283Q525 270 565 270Q636 270 675.50 298Q715 326 731 375.50Q747 425 747 488L838 490M1016 1253L1016 1239L734 1239L576 1366L420 1239L144 1239L144 1257L474 1537L680 1537L1016 1253Z"  horiz-adv-x="1159" vert-adv-y="2048"  />

      
      <glyph glyph-name="unifc" unicode="&#xfc;" d="M713 1082L1074 1082L1074 0L737 0L713 266L713 1082M838 490Q838 343 792 228Q746 113 658 46.50Q570-20 445-20Q284-20 183.50 73.50Q83 167 83 381L83 1082L443 1082L443 379Q443 345 456.50 320.50Q470 296 497.50 283Q525 270 565 270Q636 270 675.50 298Q715 326 731 375.50Q747 425 747 488L838 490M152 1361Q152 1421 199 1462Q246 1503 311 1503Q376 1503 423 1462Q470 1421 470 1361Q470 1300 423 1259Q376 1218 311 1218Q246 1218 199 1259Q152 1300 152 1361M678 1361Q678 1421 725 1462Q772 1503 837 1503Q902 1503 948.50 1462Q995 1421 995 1361Q995 1300 948.50 1259Q902 1218 837 1218Q772 1218 725 1259Q678 1300 678 1361Z"  horiz-adv-x="1159" vert-adv-y="2048"  />

      
      <glyph glyph-name="unifd" unicode="&#xfd;" d="M694 1082L1080 1082L649-159Q635-200 611-248Q587-296 546.50-339Q506-382 442.50-409.50Q379-437 285-437Q251-437 231-435.50Q211-434 192-429Q173-424 141-416L141-148Q153-148 161.50-147.50Q170-147 182-147Q262-147 294.50-127.50Q327-108 340-74L420 131L694 1082M575 355L612-47L372-34L-9 1082L377 1082L575 355M549 1536L928 1536L644 1216L351 1216L549 1536Z"  horiz-adv-x="1069" vert-adv-y="2048"  />

      
      <glyph glyph-name="unife" unicode="&#xfe;" d="M451-416L89-416L89 1536L451 1536L451-416M1105 534Q1105 377 1057 251.50Q1009 126 915.50 53Q822-20 684-20Q553-20 472 59Q391 138 346.50 267Q302 396 280 544L280 532Q302 692 346 821Q390 950 471 1026Q552 1102 682 1102Q820 1102 914 1033.50Q1008 965 1056.50 842Q1105 719 1105 555L1105 534M744 555Q744 632 730 689.50Q716 747 683 779.50Q650 812 592 812Q542 812 508 797.50Q474 783 454 752.50Q434 722 426.50 673Q419 624 422 555L422 521Q418 445 432 388.50Q446 332 485.50 301Q525 270 594 270Q653 270 685.50 305.50Q718 341 731 401Q744 461 744 534L744 555Z"  horiz-adv-x="1150" vert-adv-y="2048"  />

      
      <glyph glyph-name="uniff" unicode="&#xff;" d="M694 1082L1080 1082L649-159Q635-200 611-248Q587-296 546.50-339Q506-382 442.50-409.50Q379-437 285-437Q251-437 231-435.50Q211-434 192-429Q173-424 141-416L141-148Q153-148 161.50-147.50Q170-147 182-147Q262-147 294.50-127.50Q327-108 340-74L420 131L694 1082M575 355L612-47L372-34L-9 1082L377 1082L575 355M105 1361Q105 1421 152 1462Q199 1503 264 1503Q329 1503 376 1462Q423 1421 423 1361Q423 1300 376 1259Q329 1218 264 1218Q199 1218 152 1259Q105 1300 105 1361M631 1361Q631 1421 678 1462Q725 1503 790 1503Q855 1503 901.50 1462Q948 1421 948 1361Q948 1300 901.50 1259Q855 1218 790 1218Q725 1218 678 1259Q631 1300 631 1361Z"  horiz-adv-x="1069" vert-adv-y="2048"  />

      
      <glyph glyph-name="uni0131" unicode="&#x0131;" d="M481 0L119 0L119 1082L481 1082L481 0Z"  horiz-adv-x="599" vert-adv-y="2048"  />

      
      <glyph glyph-name="uni0152" unicode="&#x0152;" d="M728 1476Q803 1476 876 1470Q949 1464 1015 1456L1015 1158Q951 1169 878 1177Q805 1185 728 1185Q643 1185 581 1152.50Q519 1120 485.50 1053Q452 986 452 882L452 576Q452 473 486 405Q520 337 582.50 304Q645 271 730 271Q807 271 879 278.50Q951 286 1015 298L1015 0Q949-7 877-13.50Q805-20 730-20Q541-20 397 55.50Q253 131 172 265.50Q91 400 91 576L91 880Q91 1057 171.50 1191Q252 1325 395.50 1400.50Q539 1476 728 1476M1928 0L1159 0L1159 302L1928 302L1928 0M1292 0L916 0L916 1456L1292 1456L1292 0M1829 601L1159 601L1159 892L1829 892L1829 601M1931 1153L1159 1153L1159 1456L1931 1456L1931 1153Z"  horiz-adv-x="2004" vert-adv-y="2048"  />

      
      <glyph glyph-name="uni0153" unicode="&#x0153;" d="M1309-20Q1143-20 1024.50 50.50Q906 121 842.50 240Q779 359 779 503L779 538Q779 696 834.50 824.50Q890 953 1002 1028Q1114 1103 1283 1102Q1433 1102 1539 1042Q1645 982 1701.50 871.50Q1758 761 1758 608L1758 416L914 416L914 646L1406 646L1406 672Q1406 719 1394 750Q1382 781 1355 796.50Q1328 812 1283 812Q1222 812 1191 774Q1160 736 1149.50 673.50Q1139 611 1139 538L1139 503Q1139 443 1162 390Q1185 337 1233.50 304Q1282 271 1359 271Q1465 271 1525 287Q1585 303 1654 327L1738 98Q1674 52 1560.50 16Q1447-20 1309-20M74 550Q74 709 134.50 833.50Q195 958 312.50 1030Q430 1102 601 1102Q774 1102 891.50 1030Q1009 958 1069 833.50Q1129 709 1129 550L1129 531Q1129 373 1069 248Q1009 123 892 51.50Q775-20 603-20Q431-20 313 51.50Q195 123 134.50 248Q74 373 74 531L74 550M434 531Q434 457 448 398Q462 339 498.50 305Q535 271 603 271Q669 271 705 305Q741 339 755 398Q769 457 769 531L769 550Q769 622 755 681.50Q741 741 705 776.50Q669 812 601 812Q535 812 498.50 776.50Q462 741 448 681.50Q434 622 434 550L434 531Z"  horiz-adv-x="1839" vert-adv-y="2048"  />

      
      <glyph glyph-name="uni017F" unicode="&#x017F;" d="M88 0L88 1162Q88 1354 203.50 1455.50Q319 1557 527 1557Q571 1557 613 1551Q655 1545 698 1536L673 1257Q649 1262 627.50 1264.50Q606 1267 573 1267Q513 1267 480.50 1240Q448 1213 448 1162L448 0L88 0Z"  horiz-adv-x="548" vert-adv-y="2048"  />

      
      <glyph glyph-name="uni02C6" unicode="&#x02C6;" d="M965 1253L965 1239L683 1239L525 1366L369 1239L93 1239L93 1257L423 1537L629 1537L965 1253Z"  horiz-adv-x="1052" vert-adv-y="2048"  />

      
      <glyph glyph-name="uni02DA" unicode="&#x02DA;" d="M119 1270Q119 1353 183.50 1413.50Q248 1474 348 1474Q448 1474 512 1413.50Q576 1353 576 1270Q576 1188 512 1129Q448 1070 348 1070Q248 1070 183.50 1129Q119 1188 119 1270M245 1270Q245 1227 272 1197.50Q299 1168 348 1168Q396 1168 423 1197.50Q450 1227 450 1270Q450 1312 423 1342.50Q396 1373 348 1373Q299 1373 272 1342.50Q245 1312 245 1270Z"  horiz-adv-x="681" vert-adv-y="2048"  />

      
      <glyph glyph-name="uni02DC" unicode="&#x02DC;" d="M898 1541Q898 1467 868 1402Q838 1337 785.50 1297Q733 1257 663 1257Q617 1257 582 1269Q547 1281 516 1297Q485 1313 454 1325Q423 1337 385 1337Q354 1337 333 1317Q312 1297 312 1253L114 1264Q114 1336 144 1400.50Q174 1465 226.50 1506Q279 1547 348 1547Q386 1547 421 1535Q456 1523 489.50 1508Q523 1493 556.50 1481Q590 1469 626 1469Q657 1469 679.50 1488.50Q702 1508 702 1552L898 1541Z"  horiz-adv-x="1000" vert-adv-y="2048"  />

      
      <glyph glyph-name="uni0300" unicode="&#x0300;" d="M-344 1216L-635 1216L-924 1536L-544 1536L-344 1216Z"   vert-adv-y="2048"  />

      
      <glyph glyph-name="uni0301" unicode="&#x0301;" d="M-502 1536L-123 1536L-407 1216L-700 1216L-502 1536Z"   vert-adv-y="2048"  />

      
      <glyph glyph-name="uni0303" unicode="&#x0303;" d="M-172 1541Q-172 1467-202 1402Q-232 1337-284.50 1297Q-337 1257-407 1257Q-453 1257-488 1269Q-523 1281-554 1297Q-585 1313-616 1325Q-647 1337-685 1337Q-716 1337-737 1317Q-758 1297-758 1253L-956 1264Q-956 1336-926 1400.50Q-896 1465-843.50 1506Q-791 1547-722 1547Q-684 1547-649 1535Q-614 1523-580.50 1508Q-547 1493-513.50 1481Q-480 1469-444 1469Q-413 1469-390.50 1488.50Q-368 1508-368 1552L-172 1541Z"   vert-adv-y="2048"  />

      
      <glyph glyph-name="uni03B1" unicode="&#x03B1;" d="M56 542Q56 705 104.50 831.50Q153 958 247.50 1030Q342 1102 480 1102Q595 1102 666.50 1022Q738 942 778 809.50Q818 677 838 518L838 521Q818 374 777.50 251Q737 128 665.50 54Q594-20 478-20Q341-20 246.50 49.50Q152 119 104 241Q56 363 56 521L56 542M417 521Q417 447 430 390.50Q443 334 476.50 302.50Q510 271 569 271Q629 271 665 294.50Q701 318 718 366Q735 414 737 487L737 557Q734 622 724 670Q714 718 694.50 749.50Q675 781 645 796.50Q615 812 571 812Q514 812 480 776Q446 740 431.50 678.50Q417 617 417 542L417 521M1048 1082L1048 389Q1048 324 1064 297Q1080 270 1114 270Q1119 270 1122 270.50Q1125 271 1126 272L1152-2Q1118-14 1089-17.50Q1060-21 1024-21Q890-21 804 53Q718 127 688 278L688 853L733 1082L1048 1082Z"  horiz-adv-x="1152" vert-adv-y="2048"  />

      
      <glyph glyph-name="uni05B0" unicode="&#x05B0;" d="M652-353Q603-353 570.50-324.50Q538-296 538-253Q538-209 570.50-181Q603-153 652-153Q701-153 732.50-181Q764-209 764-253Q764-296 732.50-324.50Q701-353 652-353M652-647Q603-647 570.50-618.50Q538-590 538-547Q538-503 570.50-475Q603-447 652-447Q701-447 732.50-475Q764-503 764-547Q764-590 732.50-618.50Q701-647 652-647Z"   vert-adv-y="2048"  />

      
      <glyph glyph-name="uni05B1" unicode="&#x05B1;" d="M350-353Q302-353 269-324.50Q236-296 236-253Q236-209 268.50-181Q301-153 350-153Q399-153 430.50-181Q462-209 462-253Q462-296 430.50-324.50Q399-353 350-353M652-353Q603-353 570.50-324.50Q538-296 538-253Q538-209 570.50-181Q603-153 652-153Q701-153 732.50-181Q764-209 764-253Q764-296 732.50-324.50Q701-353 652-353M958-353Q910-353 877.50-324.50Q845-296 845-253Q845-209 877-181Q909-153 958-153Q1008-153 1039.50-181Q1071-209 1071-253Q1071-296 1039.50-324.50Q1008-353 958-353M501-605Q452-605 419.50-577Q387-549 387-506Q387-462 419.50-433.50Q452-405 501-405Q550-405 581.50-433.50Q613-462 613-506Q613-549 581.50-577Q550-605 501-605M958-647Q910-647 877.50-618.50Q845-590 845-547Q845-503 877.50-475Q910-447 958-447Q1008-447 1039.50-475Q1071-503 1071-547Q1071-590 1039.50-618.50Q1008-647 958-647Z"   vert-adv-y="2048"  />

      
      <glyph glyph-name="uni05B2" unicode="&#x05B2;" d="M235-328L235-176L756-176L756-328L235-328M960-647Q911-647 878.50-618.50Q846-590 846-547Q846-503 878.50-475Q911-447 960-447Q1009-447 1040.50-475Q1072-503 1072-547Q1072-590 1040.50-618.50Q1009-647 960-647M960-353Q911-353 878.50-324.50Q846-296 846-253Q846-209 878.50-181Q911-153 960-153Q1009-153 1040.50-181Q1072-209 1072-253Q1072-296 1040.50-324.50Q1009-353 960-353Z"   vert-adv-y="2048"  />

      
      <glyph glyph-name="uni05B3" unicode="&#x05B3;" d="M493-650Q446-650 413.50-621.50Q381-593 381-550Q381-520 395.50-498Q410-476 426.50-439Q443-402 448-328L234-328L234-176L755-176L755-328L538-328Q544-402 560.50-439Q577-476 591.50-498Q606-520 606-550Q606-593 574.50-621.50Q543-650 493-650M960-647Q911-647 878.50-618.50Q846-590 846-547Q846-503 878.50-475Q911-447 960-447Q1009-447 1040.50-475Q1072-503 1072-547Q1072-590 1040.50-618.50Q1009-647 960-647M960-353Q911-353 878.50-324.50Q846-296 846-253Q846-209 878.50-181Q911-153 960-153Q1009-153 1040.50-181Q1072-209 1072-253Q1072-296 1040.50-324.50Q1009-353 960-353Z"   vert-adv-y="2048"  />

      
      <glyph glyph-name="uni05B4" unicode="&#x05B4;" d="M652-353Q603-353 570.50-325Q538-297 538-253Q538-209 570.50-181Q603-153 652-153Q701-153 732.50-181Q764-209 764-253Q764-296 732.50-324.50Q701-353 652-353Z"   vert-adv-y="2048"  />

      
      <glyph glyph-name="uni05B5" unicode="&#x05B5;" d="M802-353Q753-353 720.50-325Q688-297 688-253Q688-209 720.50-181Q753-153 802-153Q851-153 882.50-181Q914-209 914-253Q914-296 882.50-324.50Q851-353 802-353M501-353Q452-353 419.50-325Q387-297 387-253Q387-209 419.50-181Q452-153 501-153Q550-153 581.50-181Q613-209 613-253Q613-296 581.50-324.50Q550-353 501-353Z"   vert-adv-y="2048"  />

      
      <glyph glyph-name="uni05B6" unicode="&#x05B6;" d="M802-353Q753-353 720.50-325Q688-297 688-253Q688-209 720.50-181Q753-153 802-153Q851-153 882.50-181Q914-209 914-253Q914-296 882.50-324.50Q851-353 802-353M652-605Q603-605 570.50-577Q538-549 538-506Q538-462 570.50-433.50Q603-405 652-405Q701-405 732.50-433.50Q764-462 764-506Q764-549 732.50-577Q701-605 652-605M501-353Q452-353 419.50-325Q387-297 387-253Q387-209 419.50-181Q452-153 501-153Q550-153 581.50-181Q613-209 613-253Q613-296 581.50-324.50Q550-353 501-353Z"   vert-adv-y="2048"  />

      
      <glyph glyph-name="uni05B7" unicode="&#x05B7;" d="M394-328L394-176L909-176L909-328L394-328Z"   vert-adv-y="2048"  />

      
      <glyph glyph-name="uni05B8" unicode="&#x05B8;" d="M651-612Q603-612 570.50-584Q538-556 538-513Q538-482 552.50-461.50Q567-441 583.50-412Q600-383 606-328L428-328L428-176L875-176L875-328L695-328Q702-383 718.50-412Q735-441 749.50-461.50Q764-482 764-513Q764-556 732.50-584Q701-612 651-612Z"   vert-adv-y="2048"  />

      
      <glyph glyph-name="uni05B9" unicode="&#x05B9;" d="M325 1363Q275 1363 242.50 1391Q210 1419 210 1462Q210 1506 242.50 1534.50Q275 1563 324 1563Q374 1563 405.50 1534.50Q437 1506 437 1462Q437 1419 405.50 1391Q374 1363 325 1363Z"   vert-adv-y="2048"  />

      
      <glyph glyph-name="uni05BA" unicode="&#x05BA;" d="M325 1363Q275 1363 242.50 1391Q210 1419 210 1462Q210 1506 242.50 1534.50Q275 1563 324 1563Q374 1563 405.50 1534.50Q437 1506 437 1462Q437 1419 405.50 1391Q374 1363 325 1363Z"   vert-adv-y="2048"  />

      
      <glyph glyph-name="uni05BB" unicode="&#x05BB;" d="M651-353Q603-353 570.50-325Q538-297 538-253Q538-209 570-181Q602-153 651-153Q701-153 732.50-181Q764-209 764-253Q764-296 732.50-324.50Q701-353 651-353M950-862Q901-862 868.50-834Q836-806 836-763Q836-719 868.50-690.50Q901-662 950-662Q999-662 1030.50-690.50Q1062-719 1062-763Q1062-806 1030.50-834Q999-862 950-862M801-607Q752-607 719.50-579.50Q687-552 687-508Q687-464 719.50-436Q752-408 801-408Q849-408 881-437.50Q913-467 913-508Q913-551 881-579Q849-607 801-607Z"   vert-adv-y="2048"  />

      
      <glyph glyph-name="uni05BC" unicode="&#x05BC;" d="M343 505Q294 505 261.50 533Q229 561 229 604Q229 648 261.50 676Q294 704 343 704Q393 704 424.50 676Q456 648 456 604Q456 561 424.50 533Q393 505 343 505Z"   vert-adv-y="2048"  />

      
      <glyph glyph-name="uni05BE" unicode="&#x05BE;" d="M568 918L60 918L60 1210L568 1210L568 918Z"  horiz-adv-x="628" vert-adv-y="2048"  />

      
      </font>
</defs>
</svg>
